<?xml version="1.0" standalone="no"?>
<!DOCTYPE svg PUBLIC "-//W3C//DTD SVG 20010904//EN"
 "http://www.w3.org/TR/2001/REC-SVG-20010904/DTD/svg10.dtd">
<svg version="1.0" xmlns="http://www.w3.org/2000/svg"
 width="1280.000000pt" height="566.000000pt" viewBox="0 0 1280.000000 566.000000"
 preserveAspectRatio="xMidYMid meet">
<metadata>
Created by potrace 1.15, written by Peter Selinger 2001-2017
</metadata>
<g transform="translate(0.000000,566.000000) scale(0.100000,-0.100000)"
fill="#000000" stroke="none">
<path d="M4668 5264 c-43 -18 -48 -33 -48 -137 0 -77 0 -77 -24 -71 -31 7 -45
-15 -20 -33 17 -13 17 -15 1 -42 -15 -25 -15 -30 -2 -41 20 -17 51 -8 47 14
-7 41 23 6 47 -55 15 -36 34 -73 42 -82 9 -8 22 -29 29 -46 9 -23 21 -32 47
-37 l34 -7 -32 -33 c-18 -19 -39 -34 -47 -34 -9 0 -39 21 -68 48 -176 158
-177 158 -194 138 -16 -20 -2 -44 58 -98 52 -46 67 -74 53 -97 -14 -22 -167
12 -201 44 -14 13 -47 32 -75 42 -34 13 -51 25 -55 40 -5 23 -98 106 -162 145
-21 13 -38 26 -38 31 0 4 40 7 89 7 96 0 101 3 96 54 -4 34 -3 33 -38 41 -19
5 -27 3 -27 -6 0 -8 -5 -6 -13 5 -12 16 -14 16 -31 -3 -22 -24 -41 -28 -33 -7
15 39 -57 42 -97 4 -13 -11 -35 -18 -62 -18 -48 0 -94 -14 -94 -30 0 -5 9 -10
19 -10 14 0 24 -13 37 -45 15 -42 19 -45 53 -45 52 -1 120 -35 164 -82 20 -22
37 -41 37 -42 0 -1 -20 0 -45 2 -59 5 -166 -31 -229 -76 -48 -35 -48 -35 -65
-15 -20 26 -50 17 -70 -21 -18 -33 -29 -33 -33 0 -2 15 -10 32 -20 37 -25 16
-46 -7 -54 -59 -3 -25 -11 -43 -16 -42 -6 2 -20 28 -33 58 -13 30 -27 56 -33
58 -13 4 -38 -36 -47 -76 -3 -18 -11 -30 -16 -27 -8 6 -31 51 -43 88 -3 9 -10
17 -16 17 -17 0 -50 -39 -50 -60 0 -35 -18 -21 -45 35 -22 48 -28 54 -45 45
-10 -5 -24 -26 -30 -45 -14 -43 -26 -37 -55 29 -25 58 -48 60 -71 6 -19 -43
-31 -50 -40 -22 -3 9 -12 29 -20 44 -8 14 -14 33 -14 41 0 25 -29 28 -50 5
-12 -13 -20 -36 -20 -57 l-1 -36 -25 30 c-14 17 -32 44 -40 62 -18 42 -34 50
-50 28 -9 -12 -12 -32 -8 -57 4 -21 3 -38 -2 -38 -10 1 -45 49 -71 98 -26 50
-48 38 -48 -26 l1 -52 -23 22 c-12 11 -30 41 -39 65 -11 28 -23 43 -34 43 -20
0 -34 -39 -23 -66 4 -12 3 -15 -5 -10 -7 4 -12 15 -12 25 0 11 -8 29 -18 41
-17 21 -19 21 -35 5 -9 -9 -17 -31 -17 -48 l-1 -32 -17 23 c-52 70 -49 67 -66
53 -9 -7 -16 -28 -17 -45 l0 -31 -17 24 c-41 59 -48 64 -68 53 -15 -8 -23 -7
-41 10 -23 21 -43 17 -43 -9 0 -14 -2 -14 -19 1 -17 16 -19 15 -34 -6 -12 -18
-18 -20 -25 -10 -7 10 -11 10 -22 -3 -9 -11 -16 -12 -26 -4 -10 8 -16 4 -27
-17 -10 -18 -16 -23 -22 -15 -5 9 -12 6 -23 -10 l-16 -23 -7 24 c-6 25 -6 25
-21 -8 -16 -36 -28 -33 -28 7 -1 28 -6 24 -36 -26 -11 -16 -13 -14 -21 17 l-9
35 -14 -32 c-16 -36 -30 -34 -30 4 0 21 -2 23 -14 13 -18 -14 -50 -106 -49
-137 3 -72 1 -68 24 -47 19 17 21 17 30 1 8 -14 13 -15 31 -4 16 9 22 9 25 0
3 -9 11 -8 29 3 13 9 24 12 24 6 0 -5 18 -8 39 -7 46 2 58 -4 74 -35 7 -13 25
-33 40 -44 26 -19 42 -21 165 -21 l137 0 82 -43 c89 -45 125 -85 138 -152 4
-19 17 -52 28 -72 17 -32 26 -38 53 -38 18 0 57 13 88 30 31 16 63 27 71 24 8
-4 22 -21 31 -40 9 -19 24 -34 34 -34 27 0 52 34 45 62 -6 22 -3 25 24 26 16
0 39 6 51 12 30 16 35 7 22 -39 -15 -49 -15 -51 3 -51 8 0 15 -5 15 -11 0 -6
-7 -8 -16 -5 -20 8 -44 -10 -44 -32 0 -9 14 -31 32 -49 30 -31 31 -34 15 -51
-9 -10 -17 -24 -17 -30 0 -7 -18 -15 -40 -18 -22 -4 -40 -10 -40 -13 0 -54
175 -82 255 -41 47 24 55 25 55 5 0 -8 9 -15 19 -15 13 0 21 -9 26 -31 8 -34
35 -49 93 -49 20 0 44 -4 52 -10 12 -7 12 -12 -4 -29 -16 -17 -17 -30 -11 -98
l7 -78 -37 -48 c-34 -44 -35 -49 -26 -85 6 -20 11 -50 11 -65 0 -24 7 -31 47
-48 76 -33 101 -22 146 62 21 38 47 105 57 147 10 42 23 90 29 105 11 27 11
27 40 12 17 -8 41 -15 55 -15 42 0 70 44 48 76 -8 12 -120 37 -132 29 -4 -3
-13 24 -19 58 -12 69 -14 117 -5 117 19 0 42 -24 47 -50 8 -36 16 -37 122 -6
78 23 80 23 104 5 13 -11 38 -19 57 -19 26 0 35 6 45 28 l12 29 30 -34 c45
-52 116 -83 195 -87 47 -3 87 -13 133 -34 154 -69 282 -63 388 19 13 11 36 19
52 19 42 0 110 29 146 63 23 22 37 28 50 22 10 -5 42 -11 72 -14 l55 -6 -50
-30 c-71 -44 -245 -119 -345 -150 -152 -47 -226 -105 -189 -150 6 -8 46 -22
87 -31 84 -19 78 -21 114 44 14 25 27 32 75 43 33 7 66 16 75 20 11 6 25 2 42
-11 14 -11 32 -20 41 -20 21 0 21 3 -14 -85 -16 -42 -30 -82 -30 -90 0 -8 -16
-30 -35 -49 -36 -37 -44 -61 -22 -69 8 -4 7 -6 -4 -6 -8 -1 -25 -11 -37 -24
-19 -20 -21 -29 -14 -67 l8 -45 49 1 c28 1 53 -3 56 -8 9 -14 115 -36 144 -30
29 5 33 29 8 47 -9 7 -18 20 -19 29 -5 32 -13 46 -29 46 -8 0 -15 5 -15 10 0
6 -7 10 -15 10 -8 0 -26 5 -40 12 -24 11 -24 12 -8 30 9 10 42 73 74 141 39
83 70 135 99 164 48 50 52 89 10 110 -24 12 -24 12 24 33 26 12 69 22 95 22
25 0 56 6 68 14 14 9 24 10 28 4 4 -6 11 -7 17 -4 13 8 138 22 138 16 0 -7
-42 -42 -51 -42 -4 0 -9 -10 -11 -22 -2 -14 -19 -29 -47 -44 -53 -26 -70 -58
-40 -74 27 -15 119 12 178 51 28 18 57 29 80 29 115 0 416 -128 514 -219 l29
-26 24 28 c37 43 31 73 -17 94 -15 6 -62 40 -105 75 -44 35 -100 79 -126 98
-27 18 -47 34 -45 36 1 1 63 -8 138 -21 75 -13 179 -29 232 -35 l97 -12 -6
-40 c-6 -32 -3 -43 17 -64 l23 -24 -31 11 c-41 14 -76 -3 -71 -34 2 -17 17
-27 58 -42 30 -11 82 -36 115 -56 33 -20 85 -49 115 -64 60 -30 113 -82 136
-132 14 -32 16 -33 75 -33 50 0 64 4 83 24 20 19 23 30 18 57 -6 31 -15 38
-102 81 -52 25 -133 61 -180 78 -76 28 -190 85 -190 95 0 2 18 -2 39 -10 55
-19 301 -38 394 -30 92 8 163 28 195 55 21 18 23 25 17 70 -5 35 -11 50 -22
50 -11 0 -13 5 -8 18 22 51 35 119 26 143 -8 24 -6 26 30 36 24 6 42 7 45 1 3
-5 12 -7 19 -4 8 3 17 -7 24 -25 12 -35 36 -47 64 -30 18 12 19 11 12 -6 -13
-33 -10 -48 10 -51 25 -3 135 45 135 60 0 6 11 3 25 -6 31 -20 69 -21 85 -1 7
8 16 15 21 15 12 0 106 -61 164 -107 54 -43 204 -142 254 -167 l29 -16 -29
-31 c-37 -40 -44 -68 -29 -116 36 -112 133 -113 263 -4 26 22 65 48 87 58 41
19 44 23 55 86 5 31 9 37 23 31 9 -4 42 -14 73 -23 53 -15 56 -17 47 -40 -7
-21 -2 -30 38 -68 33 -32 49 -42 57 -34 6 6 19 11 28 11 9 0 23 7 30 17 16 18
189 100 189 89 0 -2 -36 -28 -80 -57 -72 -47 -80 -56 -80 -83 0 -48 40 -109
78 -122 37 -12 32 -24 -9 -24 -18 0 -32 -9 -44 -26 -16 -25 -16 -27 7 -51 18
-19 30 -23 53 -19 67 11 320 106 436 163 68 34 132 64 141 67 16 5 55 54 47
59 -2 1 -18 15 -36 31 -27 24 -37 27 -70 22 -28 -5 -43 -15 -54 -35 -22 -37
-85 -80 -184 -123 -95 -42 -155 -57 -135 -33 8 10 10 29 6 54 -3 22 -3 46 0
55 11 30 112 96 161 106 26 5 76 15 111 22 34 7 62 16 62 20 0 12 -44 102 -54
109 -5 4 -6 11 -3 17 10 15 -24 39 -83 56 -82 24 -95 36 -38 36 37 0 50 -4 58
-20 13 -24 58 -27 66 -5 4 8 17 15 30 15 23 0 23 0 9 -41 -20 -56 -19 -66 7
-75 17 -5 27 0 45 22 12 16 25 41 29 56 3 18 12 28 23 28 9 0 25 6 35 13 15
11 33 9 112 -11 l93 -25 -19 -25 c-28 -35 -25 -42 19 -42 30 0 44 6 58 25 l18
24 160 -43 c88 -23 212 -53 275 -66 108 -22 117 -22 153 -7 44 19 51 52 13 67
-13 5 -88 16 -167 24 -79 9 -148 21 -153 26 -7 7 -5 10 6 10 8 0 21 13 28 30
22 53 -5 102 -78 139 -44 22 -47 27 -34 49 10 15 64 5 170 -29 53 -18 68 -19
92 -9 48 20 59 40 69 135 l9 90 -41 38 c-25 24 -48 37 -59 34 -14 -4 -18 4
-23 42 -10 72 -13 77 -59 102 -41 21 -47 22 -87 9 -24 -7 -55 -14 -69 -16 -14
-1 -49 -5 -77 -9 -44 -5 -53 -4 -53 9 0 21 -9 20 -45 -4 -40 -27 -85 -27 -85
0 0 23 -25 27 -37 5 -7 -13 -14 -13 -57 0 -27 8 -60 15 -73 15 -52 0 -15 19
150 74 166 57 348 129 375 150 22 16 43 66 37 86 -10 31 -36 24 -158 -36 -90
-46 -381 -164 -402 -164 -3 0 1 10 9 23 30 48 29 79 -8 152 -38 76 -91 128
-176 172 -62 32 -178 42 -271 24 l-60 -12 -70 65 c-38 36 -78 66 -89 66 -11 0
-39 -9 -63 -21 -83 -41 -164 -215 -150 -327 7 -59 11 -57 -84 -38 -37 8 -96
17 -130 21 l-63 7 24 31 c38 50 68 136 70 198 1 44 -4 63 -24 92 -23 34 -25
35 -51 22 -14 -8 -29 -11 -33 -8 -3 3 -15 -2 -26 -12 -20 -18 -20 -19 -1 -39
35 -38 54 -161 30 -196 -7 -11 -9 -7 -8 20 4 104 -1 129 -28 155 -32 29 -33
29 -58 12 -17 -13 -17 -15 3 -43 18 -26 38 -94 27 -94 -3 0 -10 19 -16 43 -7
31 -19 49 -40 61 -16 9 -29 23 -29 31 0 7 -12 27 -26 44 -46 55 -113 37 -130
-34 -3 -16 -17 -44 -30 -62 -13 -17 -24 -36 -24 -42 0 -6 -42 -32 -92 -57 -51
-26 -106 -56 -122 -67 l-29 -21 -38 42 c-24 28 -40 58 -45 85 -10 55 -7 193 5
235 8 28 7 32 -9 32 -13 0 -23 -14 -35 -50 -19 -57 -27 -65 -54 -51 -17 10
-22 2 -54 -82 -48 -124 -86 -246 -88 -282 -6 -82 0 -102 46 -147 24 -25 66
-55 93 -67 36 -17 48 -28 47 -43 -2 -28 -54 -67 -91 -68 -47 0 -148 -22 -156
-33 -3 -6 -4 -16 -1 -24 3 -8 -2 -13 -13 -13 -10 0 -37 -9 -61 -21 -47 -23
-77 -20 -66 7 9 24 -15 34 -89 34 -78 0 -118 -12 -118 -37 0 -13 -3 -14 -12
-5 -15 15 -48 16 -48 1 0 -6 5 -19 11 -30 7 -15 7 -24 -1 -34 -8 -10 -5 -18
15 -33 29 -23 32 -40 8 -57 -17 -12 -17 -14 1 -34 11 -12 17 -23 14 -26 -11
-11 -126 -27 -162 -22 -24 4 -47 0 -60 -8 -24 -16 -99 -22 -138 -11 -19 6 -28
4 -28 -3 0 -7 -39 -11 -119 -11 -95 0 -121 3 -131 15 -18 21 -6 30 61 44 43 9
59 18 69 37 14 26 30 36 120 79 60 29 51 30 133 -19 14 -9 21 -6 36 13 15 20
24 23 53 17 44 -8 68 13 43 38 -9 9 -21 16 -26 16 -5 0 -9 8 -9 18 0 10 -23
40 -51 67 -65 64 -121 139 -155 209 -23 46 -25 57 -15 70 8 9 23 16 35 16 27
0 46 15 75 57 19 29 20 36 10 78 -7 26 -22 54 -36 64 -36 29 -68 17 -224 -86
-90 -60 -89 -59 -89 -111 0 -41 5 -53 33 -80 18 -18 38 -32 45 -32 27 0 34
-52 21 -157 -6 -57 -15 -103 -19 -103 -3 0 -17 11 -29 24 -21 22 -29 24 -79
19 -32 -3 -68 -11 -82 -18 -44 -21 -218 -26 -342 -10 -107 14 -290 45 -296 50
-1 1 3 14 9 29 12 26 12 26 31 6 15 -16 32 -20 78 -20 52 0 64 4 94 31 l35 30
31 -42 c16 -23 30 -46 30 -51 0 -13 28 -9 33 5 2 6 0 24 -4 40 -8 28 4 39 15
12 7 -20 36 -19 36 1 0 9 -10 45 -22 80 -27 80 -53 94 -137 74 -90 -21 -141
-23 -198 -9 -50 11 -55 11 -74 -7 -15 -16 -20 -36 -22 -92 -1 -52 -6 -72 -15
-72 -15 0 -274 59 -279 63 -1 2 55 28 125 60 170 75 371 145 457 158 67 10
135 42 135 64 0 20 -31 55 -50 55 -11 0 -50 -11 -87 -25 -37 -13 -68 -23 -70
-21 -1 1 22 19 52 39 50 33 62 37 122 37 89 0 179 -16 292 -51 75 -24 96 -27
102 -17 5 7 9 16 9 19 0 13 -47 37 -155 78 -60 23 -129 57 -153 76 -35 27 -60
36 -138 50 -89 17 -97 17 -142 0 -26 -9 -59 -31 -75 -48 -23 -27 -25 -33 -13
-45 12 -13 20 -12 58 6 55 26 114 37 122 23 4 -7 -1 -11 -12 -11 -11 0 -36
-19 -56 -42 -19 -24 -44 -52 -54 -63 -32 -34 -35 -46 -18 -58 14 -11 1 -18
-86 -46 -57 -18 -156 -56 -221 -83 -65 -27 -124 -48 -131 -46 -7 2 -35 28 -61
58 l-49 55 100 6 c109 6 157 23 162 56 2 16 -5 26 -30 39 -19 11 -27 19 -18
20 8 2 35 5 60 9 56 7 72 17 64 38 -7 19 -73 24 -90 7 -13 -13 -295 -24 -313
-11 -12 8 -13 12 -1 26 11 14 30 15 144 9 139 -7 212 4 223 32 3 9 -2 23 -11
32 -14 14 -27 15 -120 4 -132 -14 -335 5 -512 48 -67 17 -129 30 -138 30 -13
0 -36 28 -36 44 0 12 28 5 41 -10 9 -11 22 -14 44 -10 18 4 65 -1 106 -9 89
-19 311 -34 397 -27 42 3 72 0 88 -9 29 -15 71 -4 88 24 9 14 6 22 -19 42 -19
15 -37 22 -50 18 -19 -5 -18 -4 3 16 12 12 22 28 22 35 0 23 -45 55 -88 62
-41 6 -42 8 -26 25 23 25 11 82 -21 103 -30 20 -248 45 -440 52 -104 3 -137 1
-167 -12z m407 -49 c94 -9 173 -19 177 -23 4 -4 -4 -27 -19 -51 -29 -50 0 -48
-243 -16 -69 9 -171 17 -227 18 l-103 2 0 26 c0 15 7 32 15 39 40 33 104 34
400 5z m-38 -156 c255 -32 261 -33 266 -56 2 -13 0 -26 -6 -30 -15 -9 -257 -4
-339 7 -40 6 -121 22 -180 37 -83 20 -108 30 -108 43 0 9 3 20 7 23 13 13 101
7 360 -24z m2599 -231 c7 -27 29 -69 49 -93 l36 -44 -31 -16 c-26 -14 -34 -14
-47 -3 -25 21 -41 67 -48 145 -12 114 12 121 41 11z m1635 46 c57 -17 149 -79
175 -119 8 -13 24 -45 34 -72 16 -43 17 -52 4 -90 -8 -23 -13 -47 -12 -53 4
-14 -142 -72 -162 -64 -8 3 -31 8 -50 10 -60 7 -90 15 -90 24 0 10 19 13 155
30 129 16 135 18 144 43 11 29 -2 44 -49 58 -28 9 -43 8 -59 -1 -19 -10 -34
-6 -104 30 -148 76 -200 125 -202 195 0 25 141 31 216 9z m-4418 -40 c42 -10
77 -20 77 -23 0 -3 -18 -16 -39 -28 -53 -31 -92 -22 -125 26 -31 44 -32 54 -8
47 9 -2 52 -12 95 -22z m3444 -86 c-2 -13 -4 -3 -4 22 0 25 2 35 4 23 2 -13 2
-33 0 -45z m-737 0 c0 -7 7 -26 15 -42 16 -31 5 -60 -14 -40 -16 15 -26 94
-12 94 6 0 11 -6 11 -12z m434 -45 c3 -10 9 -24 12 -30 4 -9 -5 -13 -30 -13
-21 0 -38 -6 -44 -16 -8 -14 -12 -14 -45 2 -20 10 -37 20 -37 23 0 7 107 49
126 50 7 1 14 -7 18 -16z m-426 -130 c32 -29 143 -83 171 -83 11 0 23 -5 27
-11 11 -18 -91 -2 -146 22 -25 11 -60 34 -77 51 -30 29 -33 37 -32 87 l0 56
15 -48 c8 -27 27 -60 42 -74z m-2188 63 c34 -15 32 -16 -82 -13 -100 2 -120 5
-135 21 -18 18 -15 18 82 13 59 -3 114 -11 135 -21z m2490 -27 c30 -12 64 -25
75 -29 19 -7 18 -9 -8 -21 -23 -10 -39 -10 -90 0 -34 7 -70 17 -80 23 -18 9
-18 11 4 34 13 14 28 23 34 20 5 -2 35 -14 65 -27z m-5183 -15 c-2 -2 -12 -1
-22 2 -17 7 -17 8 1 21 17 12 19 12 22 -2 2 -9 2 -19 -1 -21z m1067 11 c3 -8
1 -15 -4 -15 -6 0 -10 7 -10 15 0 8 2 15 4 15 2 0 6 -7 10 -15z m-934 -20 c0
-26 30 -33 78 -19 56 17 62 17 62 1 0 -7 7 -22 15 -34 l15 -21 46 24 c50 27
64 29 64 12 0 -23 30 -45 55 -40 14 2 28 8 31 13 8 14 44 10 44 -5 0 -29 26
-37 70 -22 42 14 44 14 62 -9 15 -20 25 -23 51 -18 l32 6 -42 -37 c-47 -41
-51 -53 -25 -72 9 -7 -20 1 -66 17 -107 37 -169 39 -211 3 l-30 -25 -48 32
c-27 18 -69 52 -95 76 -26 23 -52 43 -59 43 -18 0 -129 52 -129 60 0 4 15 12
33 18 45 14 47 14 47 -3z m4855 -15 c22 -5 79 -17 128 -27 48 -10 87 -20 87
-24 0 -4 -6 -12 -14 -18 -29 -24 -247 40 -272 81 -5 8 -2 9 12 4 10 -4 37 -11
59 -16z m-80 -88 c22 -10 53 -22 69 -26 19 -5 25 -11 19 -17 -24 -24 -194 74
-201 116 -3 16 4 12 35 -16 21 -20 56 -46 78 -57z m1015 58 c0 -5 -5 -10 -11
-10 -5 0 -7 5 -4 10 3 6 8 10 11 10 2 0 4 -4 4 -10z m-3976 -15 c-5 -12 -10
-13 -20 -4 -19 15 -18 19 6 19 13 0 18 -5 14 -15z m4091 -5 c3 -5 -1 -10 -9
-10 -9 0 -16 5 -16 10 0 6 4 10 9 10 6 0 13 -4 16 -10z m-3955 -31 c0 -18 -4
-20 -27 -14 -16 4 -36 7 -45 7 -28 -1 -21 7 15 17 49 14 57 13 57 -10z m400
17 c0 -3 -4 -8 -10 -11 -5 -3 -10 -1 -10 4 0 6 5 11 10 11 6 0 10 -2 10 -4z
m-1693 -32 c-3 -3 -12 -4 -19 -1 -8 3 -5 6 6 6 11 1 17 -2 13 -5z m136 -61
c17 -20 23 -21 36 -10 27 23 46 26 70 8 31 -23 18 -49 -27 -57 -58 -9 -62 -12
-62 -39 0 -41 -32 -28 -44 18 -7 28 -38 38 -52 15 -5 -7 -12 4 -19 28 -13 44
-8 54 38 70 23 8 33 8 36 0 2 -6 13 -21 24 -33z m987 17 c0 -16 -27 -23 -55
-16 -39 10 -29 26 15 26 22 0 40 -5 40 -10z m111 -17 c13 -16 12 -17 -3 -4
-17 13 -22 21 -14 21 2 0 10 -8 17 -17z m2939 -93 c0 -5 -4 -10 -10 -10 -5 0
-10 5 -10 10 0 6 5 10 10 10 6 0 10 -4 10 -10z m1307 4 c-3 -3 -12 -4 -19 -1
-8 3 -5 6 6 6 11 1 17 -2 13 -5z m-5247 -14 c0 -5 -10 -10 -22 -10 -19 0 -20
2 -8 10 19 13 30 13 30 0z m-446 -40 c-7 -7 -23 -8 -39 -4 l-28 7 23 19 c21
17 25 17 39 4 11 -11 12 -19 5 -26z m1684 -8 c2 -7 -2 -10 -12 -6 -9 3 -16 11
-16 16 0 13 23 5 28 -10z m2602 -12 c9 -14 45 -16 55 -2 13 17 125 5 125 -13
0 -15 60 -28 84 -19 9 3 16 2 16 -4 0 -6 3 -19 7 -29 6 -16 5 -16 -10 -5 -23
19 -72 12 -71 -10 2 -22 -19 -24 -35 -4 -7 8 -30 18 -53 21 -32 6 -46 3 -69
-14 -34 -25 -47 -27 -28 -5 11 14 10 19 -8 34 -12 10 -19 20 -16 24 3 3 -2 9
-12 12 -13 5 -25 -1 -40 -20 -19 -24 -23 -25 -29 -11 -3 9 -4 21 0 26 3 5 -3
12 -13 16 -16 6 -15 8 7 14 27 8 82 1 90 -11z m-3850 -62 c0 -13 -5 -30 -10
-38 -8 -13 -12 -12 -31 7 -19 18 -20 24 -9 37 19 24 50 20 50 -6z m2055 -63
c327 -79 315 -76 287 -86 -26 -10 -125 6 -130 21 -2 6 -28 10 -58 10 -66 0
-312 35 -413 58 -61 14 -75 21 -83 41 l-8 24 87 -6 c55 -4 175 -27 318 -62z
m-1641 -37 c7 -32 5 -33 -35 -12 -45 23 -91 15 -107 -18 -7 -16 -21 -28 -30
-28 -9 0 -35 -3 -57 -5 -33 -5 -36 -4 -17 5 13 5 28 24 34 41 13 37 41 49 113
49 30 0 57 5 61 11 9 15 30 -8 38 -43z m1070 10 c-8 -12 -97 0 -106 15 -14 23
-8 24 51 8 33 -8 57 -19 55 -23z m-344 18 l25 -14 -40 -7 c-22 -3 -49 -10 -61
-15 -12 -4 -27 -4 -35 1 -11 8 -10 12 6 22 45 28 72 31 105 13z m4245 -3 c13
-18 9 -53 -6 -53 -18 0 -79 29 -79 37 0 32 64 44 85 16z m-1796 -24 c9 -27 8
-34 -7 -45 -10 -8 -21 -9 -26 -3 -6 5 -18 9 -28 9 -16 0 -17 3 -8 20 6 11 7
20 3 20 -12 0 31 29 44 30 6 0 16 -14 22 -31z m-3989 -9 c11 -11 31 -20 45
-20 16 0 25 -6 25 -15 0 -19 -11 -19 -57 0 -41 17 -63 14 -63 -10 0 -8 -7 -15
-15 -15 -12 0 -13 4 -6 19 6 10 7 22 3 26 -7 7 25 35 40 35 4 0 17 -9 28 -20z
m4237 -36 c-2 -3 -22 -7 -43 -10 l-39 -4 40 18 c22 11 42 15 44 10 1 -5 1 -11
-2 -14z m2072 7 c20 -11 43 -27 50 -35 12 -14 9 -16 -28 -16 -45 0 -181 28
-181 37 0 3 8 12 18 19 25 20 97 17 141 -5z m281 -2 c0 -13 -24 -11 -45 4 -16
13 -15 14 13 9 18 -2 32 -8 32 -13z m-5220 -10 c18 -15 20 -19 7 -15 -10 3
-29 6 -43 6 -17 0 -22 4 -18 15 8 20 24 19 54 -6z m3450 5 c48 -19 48 -38 0
-42 -54 -6 -80 5 -80 33 0 30 21 32 80 9z m800 6 c0 -5 -5 -10 -11 -10 -5 0
-7 5 -4 10 3 6 8 10 11 10 2 0 4 -4 4 -10z m268 -9 c3 -8 -1 -12 -9 -9 -7 2
-15 10 -17 17 -3 8 1 12 9 9 7 -2 15 -10 17 -17z m-3942 -5 c8 -22 -33 -58
-57 -51 -13 4 -18 12 -15 22 3 8 6 21 6 29 0 19 59 19 66 0z m74 -1 c-7 -8
-14 -15 -15 -15 -2 0 -5 7 -9 15 -4 10 1 15 16 15 17 0 18 -2 8 -15z m1853 8
c-7 -2 -19 -2 -25 0 -7 3 -2 5 12 5 14 0 19 -2 13 -5z m1694 -18 c-8 -16 -20
-25 -36 -25 -24 0 -23 1 9 25 19 14 35 25 36 25 1 0 -3 -11 -9 -25z m-2737 -7
c0 -13 -23 -5 -28 10 -2 7 2 10 12 6 9 -3 16 -11 16 -16z m-1247 5 c-7 -2 -19
-2 -25 0 -7 3 -2 5 12 5 14 0 19 -2 13 -5z m637 -2 c0 -5 -6 -14 -13 -20 -11
-8 -18 -6 -32 9 -18 20 -17 20 13 20 18 0 32 -4 32 -9z m2482 -61 c-7 -62 60
-87 81 -30 9 25 17 30 44 30 20 0 41 8 53 20 l20 20 11 -27 c6 -16 8 -39 5
-54 -3 -18 1 -28 14 -37 11 -7 29 -30 40 -52 l20 -40 -32 0 c-18 1 -63 6 -99
13 -109 22 -219 123 -219 203 l0 26 32 -21 c27 -17 32 -25 30 -51z m-3546 43
l26 -16 -24 -13 c-31 -18 -108 -17 -132 1 -11 8 -18 17 -15 19 3 3 81 20 112
25 4 0 19 -7 33 -16z m4914 -14 c13 -7 13 -8 0 -9 -27 0 -60 12 -60 22 0 9 33
3 60 -13z m-366 -40 c-8 -14 -24 -10 -24 6 0 9 6 12 15 9 8 -4 12 -10 9 -15z
m595 -10 c82 -11 101 -16 101 -29 0 -33 7 -33 -187 22 -40 11 -70 24 -67 29 2
5 15 4 28 -1 13 -5 69 -14 125 -21z m-4955 -19 c43 -17 97 -35 120 -39 l41 -7
-30 -16 c-69 -35 -165 -28 -259 19 l-49 25 31 18 c16 10 33 24 37 30 4 6 12 9
19 6 6 -3 47 -19 90 -36z m184 30 c26 0 33 -3 25 -11 -12 -12 -80 -2 -90 14
-4 7 0 8 11 4 10 -4 34 -7 54 -7z m4417 -15 l40 -13 -45 5 c-49 6 -91 23 -55
22 11 0 38 -7 60 -14z m-4305 -5 c-20 -13 -43 -13 -35 0 3 6 16 10 28 10 18 0
19 -2 7 -10z m4189 -12 c12 -16 11 -18 -7 -18 -15 0 -19 5 -15 20 3 12 6 19 7
18 1 -2 8 -11 15 -20z m701 -35 c38 -26 68 -48 67 -50 -2 -1 -34 6 -72 16 -67
16 -70 19 -73 49 -2 18 0 32 3 32 4 0 37 -21 75 -47z m-823 1 c-3 -3 -12 -4
-19 -1 -8 3 -5 6 6 6 11 1 17 -2 13 -5z m-524 -49 c34 -39 36 -46 21 -52 -13
-5 -27 4 -51 32 -18 21 -33 44 -33 52 0 25 25 12 63 -32z m-97 22 c0 -1 17
-23 37 -48 37 -46 38 -59 7 -59 -17 0 -66 54 -89 99 -13 23 -12 23 15 17 16
-4 29 -8 30 -9z m162 -12 c15 -31 5 -32 -33 0 l-30 24 26 1 c18 0 29 -8 37
-25z m172 -6 c0 -7 10 -9 26 -5 15 4 23 3 20 -2 -9 -14 -57 -21 -104 -15 -34
5 -40 8 -31 19 14 17 89 19 89 3z m319 -57 c20 -7 12 -13 -64 -40 -48 -18 -91
-32 -96 -32 -5 0 7 22 27 49 35 47 37 48 73 40 21 -5 48 -12 60 -17z m-3819 3
c0 -2 -20 -18 -45 -35 -25 -17 -45 -37 -45 -45 0 -21 -13 -18 -28 5 -12 19 -8
23 50 50 73 33 68 31 68 25z m1607 -41 c148 -16 230 -13 284 10 11 5 18 1 22
-13 11 -43 -83 -91 -177 -91 -105 1 -329 36 -381 60 -40 19 -46 24 -28 27 12
2 27 11 34 19 9 12 24 14 53 10 23 -3 110 -13 193 -22z m1768 -8 c25 -13 26
-14 6 -21 -27 -8 -70 13 -50 26 17 11 12 11 44 -5z m-70 -26 c3 -5 -1 -10 -9
-10 -8 0 -18 5 -21 10 -3 6 1 10 9 10 8 0 18 -4 21 -10z"/>
<path d="M4278 5059 c-27 -15 -21 -31 10 -27 15 2 27 9 27 17 0 19 -16 23 -37
10z"/>
<path d="M4354 5040 c-23 -11 -46 -31 -53 -47 -11 -25 -10 -29 9 -45 17 -13
26 -15 35 -8 8 6 40 12 72 13 l58 2 3 37 c2 28 -2 40 -20 52 -29 21 -54 20
-104 -4z"/>
<path d="M3845 4926 c-20 -14 -15 -46 8 -46 19 0 50 36 42 49 -9 15 -27 14
-50 -3z"/>
<path d="M3625 4910 c-12 -20 7 -30 56 -30 42 0 49 3 49 20 0 17 -7 20 -49 20
-28 0 -53 -4 -56 -10z"/>
<path d="M3327 4863 c-4 -3 -7 -14 -7 -23 0 -13 12 -16 65 -17 69 -1 90 11 60
34 -19 13 -106 18 -118 6z"/>
<path d="M1993 4325 c-29 -20 -37 -59 -18 -94 13 -27 17 -28 50 -21 47 11 65
27 65 59 0 59 -50 89 -97 56z"/>
<path d="M2775 4103 c-27 -7 -52 -30 -58 -55 -7 -26 45 -78 78 -78 42 0 72 18
83 48 9 26 7 33 -16 55 -30 28 -57 37 -87 30z"/>
<path d="M2331 4077 c-38 -9 -50 -19 -93 -78 -27 -37 -67 -79 -88 -94 -42 -29
-54 -61 -48 -125 2 -24 13 -41 41 -64 37 -29 44 -31 128 -32 197 -3 257 -13
346 -57 62 -31 80 -44 72 -54 -6 -6 -8 -17 -4 -23 4 -6 -8 -10 -31 -10 -31 0
-36 -3 -31 -19 4 -16 -1 -20 -27 -23 -23 -2 -30 -7 -28 -20 2 -12 -4 -18 -17
-18 -28 0 -52 -11 -45 -21 3 -5 -13 -9 -35 -9 -37 0 -55 -11 -56 -35 0 -5 -11
-10 -25 -10 -20 0 -25 -5 -24 -23 1 -21 -2 -22 -43 -16 -46 7 -52 1 -26 -28
22 -25 11 -33 -28 -19 -18 6 -40 11 -51 11 -17 0 -18 -2 -3 -30 18 -35 10 -42
-46 -38 -32 3 -34 1 -31 -25 l4 -28 -52 7 -51 7 7 -28 c6 -25 5 -27 -12 -21
-28 11 -104 20 -104 12 0 -4 8 -19 17 -33 l17 -26 -29 8 c-17 4 -41 9 -55 9
-21 1 -25 -3 -22 -23 2 -20 -1 -22 -24 -17 -34 9 -64 -1 -64 -21 0 -11 -6 -14
-22 -9 -25 6 -134 -11 -158 -25 -36 -21 -80 -37 -118 -44 -23 -4 -44 -11 -48
-16 -3 -5 -13 -9 -22 -9 -9 0 -30 -7 -46 -15 -15 -8 -47 -15 -71 -15 -26 0
-47 -6 -55 -15 -8 -9 -30 -15 -59 -15 -43 0 -49 -3 -71 -38 -21 -33 -27 -37
-57 -34 -38 5 -83 -27 -83 -59 0 -14 -7 -16 -45 -12 -24 3 -51 3 -60 -1 -15
-5 -14 -9 4 -35 12 -16 21 -34 21 -39 0 -14 -70 -25 -111 -17 -53 9 -65 -5
-40 -46 26 -43 26 -57 0 -85 -20 -22 -20 -22 -1 -60 13 -27 16 -47 11 -64 -4
-14 -7 -37 -8 -52 l-1 -27 40 14 c36 13 45 12 74 -1 30 -15 35 -15 65 0 31 17
33 16 62 -9 17 -14 35 -25 41 -25 6 0 8 26 6 68 l-3 67 34 3 c27 3 40 -3 68
-30 28 -27 35 -30 44 -18 5 8 6 38 3 66 -5 41 -3 52 9 57 11 4 21 -5 34 -30
10 -21 23 -39 30 -41 17 -5 43 51 43 93 0 44 15 45 52 3 l28 -33 25 28 c14 15
25 39 25 53 0 29 5 30 37 4 31 -24 38 -20 53 26 9 27 15 33 25 24 17 -14 52 6
61 34 6 18 7 17 27 -3 l21 -21 28 27 c24 23 29 24 44 12 14 -12 19 -10 41 15
l24 28 24 -22 c24 -23 25 -23 45 -5 11 10 20 29 20 42 0 27 7 29 39 7 19 -14
25 -14 32 -3 5 8 9 24 9 37 0 27 19 28 53 2 14 -11 28 -20 32 -20 4 0 5 23 1
50 -8 60 3 64 51 18 27 -26 35 -29 47 -19 14 12 14 16 0 43 -21 40 -12 45 31
18 43 -27 61 -17 45 24 -22 58 -4 73 43 36 25 -20 26 -20 32 -1 3 10 1 30 -4
45 -13 31 3 35 51 10 36 -19 56 -7 39 24 -15 29 -14 32 13 32 13 0 35 -10 50
-21 36 -28 44 -17 24 37 -15 42 -15 44 3 44 10 0 21 -4 24 -10 3 -5 15 -15 27
-21 19 -10 20 -9 13 32 -7 38 -6 41 11 35 35 -14 39 -11 38 22 -2 35 7 40 26
17 18 -22 32 -5 36 40 3 45 9 52 29 35 13 -11 16 -8 21 19 6 30 27 41 39 21
10 -17 25 -1 25 27 0 20 4 24 18 18 32 -12 37 -10 40 18 3 28 16 35 27 16 4
-5 12 -8 18 -6 6 2 24 -24 40 -56 l30 -59 50 6 c33 3 71 18 106 40 l56 34 42
-25 43 -25 56 55 c37 36 55 61 51 71 -3 8 -25 27 -49 42 -24 14 -65 48 -93 75
-33 31 -74 58 -120 77 -38 17 -110 48 -160 71 -126 59 -308 130 -385 151 -36
9 -64 21 -63 26 1 5 9 27 17 49 12 35 12 45 -1 80 -14 38 -65 96 -81 94 -4 -1
-27 -6 -51 -12z"/>
<path d="M2530 4062 c-28 -23 -19 -42 20 -42 34 0 56 30 38 48 -17 17 -32 15
-58 -6z"/>
<path d="M3223 3928 c-27 -13 -29 -27 -9 -54 15 -19 15 -19 53 1 48 26 53 59
8 62 -16 1 -40 -3 -52 -9z"/>
<path d="M7601 3861 c-8 -5 -11 -16 -8 -26 6 -13 15 -15 54 -9 57 8 63 11 63
30 0 16 -85 20 -109 5z"/>
<path d="M5417 3813 c-52 -21 -42 -38 22 -37 61 2 66 5 51 33 -13 25 -22 25
-73 4z"/>
<path d="M7520 3790 c-27 -27 -23 -64 7 -68 28 -4 61 42 47 66 -16 25 -31 25
-54 2z"/>
<path d="M9503 3761 c-11 -10 -25 -39 -32 -64 -17 -60 -5 -101 32 -105 31 -4
33 -9 11 -40 -15 -22 -15 -25 7 -49 52 -56 132 -62 107 -9 -6 14 -8 35 -5 48
11 42 82 53 308 49 193 -3 196 -3 202 18 6 25 -2 30 -93 59 -50 15 -104 22
-227 26 -127 4 -168 9 -188 22 -14 9 -25 22 -25 29 0 12 -41 35 -64 35 -7 0
-21 -9 -33 -19z"/>
<path d="M7222 3737 c-11 -13 7 -52 32 -69 15 -10 36 3 36 24 0 48 -42 76 -68
45z"/>
<path d="M4122 3576 c-41 -14 -71 -52 -72 -88 0 -33 10 -39 115 -66 71 -18
126 -25 371 -48 71 -6 68 -3 173 -152 89 -125 87 -134 -23 -130 l-71 3 2 -30
c2 -18 -5 -38 -18 -51 -17 -18 -19 -29 -14 -68 4 -26 14 -50 24 -56 22 -13 7
-12 -22 1 -13 6 -32 26 -40 45 -12 24 -23 34 -40 34 -14 0 -42 18 -70 45 -40
37 -54 45 -86 45 -45 0 -77 -23 -87 -63 -5 -23 0 -33 36 -66 l42 -38 -49 -12
c-74 -19 -133 -48 -133 -66 0 -28 26 -27 129 5 97 30 114 43 90 67 -7 7 2 12
30 17 22 3 44 13 48 20 6 12 11 9 20 -10 10 -23 9 -26 -25 -44 -68 -36 -77
-47 -66 -78 11 -30 14 -30 98 -7 54 15 62 15 90 1 17 -9 85 -30 151 -47 66
-17 143 -40 170 -50 57 -21 250 -69 278 -69 14 0 17 5 11 23 -3 12 -13 29 -21
39 -13 15 -11 16 19 15 31 -2 33 0 31 32 -3 66 -55 81 -68 20 l-7 -33 -30 33
c-16 18 -42 37 -56 41 l-27 8 27 1 c15 1 33 7 39 14 7 7 25 11 41 9 22 -3 30
0 34 15 3 10 15 23 27 28 12 6 22 17 22 25 0 21 133 55 157 40 33 -19 68 -11
133 29 26 16 30 23 28 57 -2 21 -7 40 -12 42 -23 8 -63 46 -72 69 -8 23 -46
45 -61 36 -5 -2 -8 -17 -8 -33 0 -22 11 -39 37 -64 42 -38 41 -43 -4 -52 -25
-5 -31 -2 -36 16 -4 17 -12 21 -36 19 -22 -3 -35 3 -51 24 -32 40 -69 56 -107
45 -27 -7 -34 -16 -43 -49 -10 -38 -9 -43 17 -77 40 -51 43 -71 16 -99 -20
-19 -29 -21 -60 -15 -40 8 -57 29 -22 28 12 -1 28 9 36 21 13 20 13 23 -9 37
-13 8 -59 19 -103 25 -82 12 -105 25 -105 64 0 10 5 27 10 37 8 15 5 28 -12
55 -13 19 -30 37 -40 40 -9 3 -42 40 -75 82 -96 125 -91 113 -47 113 49 1 106
14 179 41 69 26 122 88 103 119 -15 23 -74 35 -94 19 -13 -10 -12 -14 2 -31
16 -17 16 -19 -2 -33 -39 -29 -256 -66 -269 -46 -8 15 -65 14 -65 0 0 -25
-360 9 -445 41 -23 9 -23 10 -9 40 23 46 16 59 -24 46z m780 -678 c-7 -7 -12
-8 -12 -2 0 6 3 14 7 17 3 4 9 5 12 2 2 -3 -1 -11 -7 -17z m-40 -46 c4 -15 0
-17 -26 -14 -53 6 -64 14 -31 22 47 12 52 11 57 -8z m73 -22 c3 -6 -5 -10 -19
-10 -32 0 -42 15 -11 18 13 1 27 -3 30 -8z"/>
<path d="M7293 3581 c-52 -5 -68 -11 -93 -37 -28 -28 -30 -33 -19 -57 10 -21
17 -26 33 -21 33 11 90 23 105 24 11 0 11 -4 -3 -19 -9 -10 -14 -25 -11 -33 7
-18 -35 -33 -64 -23 -12 4 -21 -3 -30 -21 -15 -34 -9 -40 63 -58 52 -14 61
-14 87 0 l29 15 0 -35 c0 -80 44 -206 93 -268 14 -18 87 -26 87 -10 0 24 78
84 127 98 67 20 83 14 83 -28 0 -34 23 -78 97 -185 48 -69 82 -97 131 -108 64
-14 20 -19 -146 -16 -141 2 -176 5 -225 23 -73 26 -148 20 -186 -15 -14 -13
-33 -27 -43 -30 -9 -3 -23 -29 -32 -60 -9 -30 -25 -66 -36 -80 l-21 -26 28
-17 c15 -10 45 -28 66 -42 37 -25 77 -41 202 -83 85 -29 186 -21 226 17 39 37
48 98 20 128 -12 12 -21 25 -21 29 0 3 70 7 155 9 143 3 172 -1 145 -17 -6 -4
-22 -29 -36 -56 -39 -78 -14 -117 49 -75 47 32 142 40 254 22 48 -8 101 -20
117 -27 l29 -14 -34 -7 c-19 -4 -155 -14 -304 -22 -223 -13 -280 -19 -330 -36
-44 -16 -73 -20 -110 -15 -27 3 -103 1 -168 -4 l-118 -10 -76 46 c-42 26 -113
81 -158 124 -61 57 -94 81 -126 89 -45 12 -139 6 -172 -12 -16 -8 -18 -7 -13
9 3 10 8 31 12 46 3 15 18 34 33 41 38 20 101 86 101 107 0 9 -17 32 -39 52
-31 28 -38 40 -34 60 4 21 1 27 -20 32 -19 5 -28 16 -33 38 -8 38 -43 95 -98
161 -32 39 -61 59 -133 93 -67 32 -91 48 -86 58 3 8 2 26 -1 39 -9 35 -96 54
-164 37 -229 -57 -263 -61 -502 -67 -129 -3 -259 -10 -289 -16 l-54 -10 7 -52
c9 -84 40 -157 95 -229 28 -38 51 -72 51 -76 0 -4 -26 -13 -57 -20 -151 -32
-189 -44 -205 -63 -16 -18 -16 -23 -3 -48 19 -37 19 -40 -4 -40 -11 0 -23 -5
-27 -11 -5 -8 -10 -6 -16 5 -10 18 -53 22 -63 6 -3 -5 -20 -10 -36 -10 -21 0
-32 -6 -38 -23 -9 -24 -38 -42 -82 -51 -34 -7 -43 -30 -25 -65 16 -29 71 -51
184 -71 65 -11 96 -7 123 16 14 12 15 8 15 -34 -1 -46 -1 -47 34 -50 39 -4 60
16 60 59 0 28 -15 39 -54 39 -12 0 -33 11 -46 25 -15 16 -43 28 -82 36 -32 6
-58 15 -58 18 0 4 14 15 30 25 30 17 31 17 61 -8 33 -28 58 -33 76 -15 17 17
100 19 114 3 6 -8 28 -14 49 -14 34 0 37 -2 33 -24 -3 -13 0 -27 6 -30 22 -14
10 -25 -15 -14 -22 11 -28 10 -40 -7 -8 -10 -14 -33 -14 -51 0 -46 23 -52 113
-27 45 12 40 72 -7 74 -21 1 -21 1 0 7 21 7 84 73 101 107 14 28 6 45 -23 45
-13 0 -32 4 -42 9 -26 13 -108 31 -150 32 -54 1 -86 13 -90 31 -5 25 33 45
125 66 85 20 103 17 103 -19 0 -10 8 -20 18 -23 30 -10 92 -74 93 -98 1 -13 1
-38 0 -57 -2 -18 0 -48 4 -67 5 -27 11 -34 28 -34 39 0 47 -18 47 -111 0 -48
-3 -90 -7 -92 -5 -3 -31 4 -60 14 -43 17 -53 25 -58 50 -6 25 -11 30 -33 27
-23 -3 -27 -9 -30 -38 -3 -30 -9 -38 -48 -58 -24 -12 -46 -22 -49 -22 -3 0 -5
17 -5 38 0 31 -6 43 -30 60 -36 27 -81 28 -105 2 -17 -18 -42 -19 -30 0 3 4
-9 20 -27 35 -27 23 -39 26 -77 22 -71 -8 -100 -69 -40 -82 18 -4 33 -15 36
-26 7 -23 36 -33 79 -24 29 5 34 3 34 -13 0 -10 5 -23 12 -30 9 -9 8 -15 -7
-26 -25 -18 -13 -46 22 -46 14 0 37 9 49 21 l22 20 6 -28 c7 -27 90 -216 121
-276 13 -25 13 -31 0 -50 -8 -12 -15 -32 -15 -44 0 -19 5 -23 29 -23 16 0 42
4 56 10 23 9 34 5 83 -29 250 -169 564 -230 762 -148 124 52 206 166 235 327
10 52 17 107 17 123 -1 15 1 27 4 27 2 0 42 -9 89 -21 121 -30 130 -43 130
-173 0 -116 9 -136 53 -128 37 7 42 17 42 89 0 85 -32 156 -96 212 l-49 43 35
-6 c19 -4 75 -3 124 0 l90 7 55 55 56 54 129 5 c90 4 127 3 122 -5 -3 -5 4
-30 16 -53 27 -51 67 -71 99 -50 21 12 21 12 3 -18 -53 -90 -232 -179 -379
-190 -75 -6 -95 -11 -113 -29 -20 -20 -21 -26 -10 -50 12 -24 19 -27 63 -26
28 0 73 4 100 8 43 7 54 5 84 -16 19 -12 39 -31 45 -40 16 -27 -21 -68 -82
-91 -46 -17 -52 -23 -52 -48 0 -16 8 -33 18 -39 30 -19 -146 -2 -194 19 -23
11 -52 33 -65 50 -27 37 -35 38 -65 10 -30 -28 -22 -43 49 -98 l54 -41 144
-16 c183 -20 284 -13 342 23 66 40 90 77 95 142 3 56 3 56 -66 148 l-70 92 42
25 c50 29 122 105 137 143 5 14 7 45 3 68 l-6 42 69 6 c37 4 135 7 216 7 128
0 488 36 650 65 l27 5 0 -74 c0 -105 12 -133 63 -146 23 -6 48 -13 54 -15 7
-2 138 -20 290 -40 153 -20 436 -58 628 -85 l350 -50 208 -71 c168 -58 220
-81 278 -120 39 -27 77 -49 84 -49 27 0 130 43 153 63 26 24 49 97 56 172 3
46 0 54 -38 102 l-41 53 -78 0 c-324 0 -1321 107 -1427 153 -35 15 -35 15 -7
16 15 1 54 14 86 31 60 30 71 47 63 98 -4 28 -61 58 -89 48 -16 -7 -15 -11 15
-35 17 -15 32 -30 32 -33 0 -16 -167 -48 -249 -48 -48 0 -168 43 -133 48 13 2
43 -3 68 -12 l44 -15 33 33 c70 70 89 168 42 218 -35 37 -82 45 -131 20 -79
-39 -307 -102 -444 -122 -41 -6 -86 -13 -99 -16 l-23 -5 26 47 c14 25 26 62
26 81 0 34 0 34 38 27 20 -4 56 -15 79 -25 l42 -18 34 38 c27 30 36 50 41 93
9 74 -2 98 -63 130 l-52 26 -62 -24 c-55 -22 -241 -54 -317 -54 -14 0 -90 -4
-170 -9 -80 -5 -146 -7 -148 -6 -2 2 11 6 29 10 44 10 128 65 168 110 l33 37
-31 32 c-17 17 -74 58 -128 90 -54 33 -134 85 -178 117 -44 31 -98 64 -119 73
l-39 16 46 30 c25 16 53 43 62 60 15 29 15 31 -10 54 -46 43 -274 106 -382
106 -33 0 -45 5 -53 21 -10 18 -17 20 -53 14 -23 -4 -50 -12 -60 -17 -13 -6
-25 -3 -46 12 -16 11 -35 19 -43 18 -7 0 -41 -4 -75 -7z m316 -321 l46 -5 -40
-28 c-22 -15 -53 -27 -70 -27 -26 0 -34 6 -48 35 -9 20 -17 47 -17 60 l0 25
41 -27 c24 -15 62 -30 88 -33z m-1365 1 c-34 -21 -74 -56 -90 -76 l-28 -38
-141 6 c-224 9 -295 29 -295 84 0 41 36 47 310 53 140 3 266 7 280 8 19 1 11
-7 -36 -37z m-281 -187 c59 -4 107 -8 107 -9 0 -1 -11 -28 -25 -59 -19 -44
-29 -56 -43 -52 -101 28 -136 44 -176 78 -56 48 -59 62 -8 55 20 -3 85 -9 145
-13z m17 -194 c0 -5 -2 -10 -4 -10 -3 0 -8 5 -11 10 -3 6 -1 10 4 10 6 0 11
-4 11 -10z m1019 -31 c-13 -26 -20 -21 -12 9 3 12 9 19 14 16 5 -3 4 -14 -2
-25z m-521 -404 c49 -19 67 -41 40 -50 -7 -2 -37 -5 -65 -8 -52 -4 -53 -4 -53
24 0 32 10 61 19 57 3 -2 30 -12 59 -23z m-554 -121 c25 -10 19 -22 -9 -16
-14 2 -22 8 -19 13 6 11 8 11 28 3z m384 -67 c16 -44 15 -47 -8 -47 -11 0 -37
-7 -59 -16 -40 -16 -45 -16 -130 12 -11 4 -9 8 7 20 12 8 22 24 22 34 0 17 9
20 68 23 37 2 72 4 77 5 6 1 16 -13 23 -31z m-343 -53 c13 5 239 -57 254 -70
2 -2 -11 -17 -29 -34 -36 -34 -43 -33 -147 9 -57 22 -163 89 -163 102 0 15 35
15 52 1 10 -8 25 -12 33 -8z m835 -11 c-46 -87 -122 -135 -240 -152 -59 -8
-305 1 -316 12 -2 2 14 21 36 41 43 38 91 48 129 24 14 -9 28 -8 62 5 152 55
226 84 244 94 11 7 39 13 63 13 l42 0 -20 -37z m36 -111 c-36 -72 -68 -105
-133 -139 -76 -41 -141 -53 -273 -53 -122 0 -140 4 -140 31 0 12 -18 31 -47
50 l-48 31 50 -7 c267 -39 419 -14 547 91 35 28 64 50 66 49 2 -2 -8 -25 -22
-53z m-876 1 c36 -17 88 -39 115 -48 49 -15 51 -17 52 -55 2 -30 -1 -38 -13
-33 -8 3 -14 18 -14 34 0 35 -36 54 -86 46 -26 -4 -39 2 -85 44 -61 56 -60 57
31 12z m893 -110 c-25 -69 -120 -132 -228 -152 -70 -13 -207 -14 -290 -2 -71
10 -209 50 -201 58 3 3 20 0 38 -6 57 -21 190 -41 268 -41 159 0 273 36 365
117 27 24 51 43 52 43 1 0 -1 -8 -4 -17z m912 -58 c63 -60 67 -67 61 -97 -10
-53 -90 -108 -186 -129 -69 -15 -74 -5 -8 17 80 26 117 54 124 92 10 52 -4
100 -43 143 -56 62 -23 45 52 -26z"/>
<path d="M10140 3576 c0 -26 89 -76 134 -76 13 0 27 7 30 16 10 25 -22 54 -60
54 -18 0 -36 5 -39 10 -10 16 -65 12 -65 -4z"/>
<path d="M5238 3294 c-13 -13 -14 -22 -6 -40 12 -27 44 -31 72 -11 14 10 15
18 7 40 -12 31 -47 37 -73 11z"/>
<path d="M1065 3229 c-428 -131 -908 -249 -1015 -249 l-50 0 0 -116 c0 -105 2
-115 18 -110 9 3 37 10 62 16 25 7 209 65 410 130 l365 118 195 21 c182 20
344 52 364 71 14 14 -4 67 -27 77 -12 6 -47 29 -77 52 -30 22 -61 40 -70 40
-8 -1 -87 -23 -175 -50z"/>
<path d="M3523 3158 c-74 -20 -83 -30 -60 -62 12 -17 16 -17 51 -2 21 9 60 16
87 16 40 0 49 3 49 18 -1 23 -24 52 -41 51 -8 0 -47 -10 -86 -21z"/>
<path d="M4503 3142 c-6 -4 -12 -34 -14 -67 -3 -51 -1 -60 14 -63 31 -6 47 17
47 67 0 47 -23 78 -47 63z"/>
<path d="M7123 3130 c-85 -22 -113 -36 -113 -54 0 -18 93 -29 145 -16 22 5 66
10 97 10 81 0 158 19 158 40 0 33 -22 40 -119 39 -59 0 -124 -8 -168 -19z"/>
<path d="M3983 3125 c-18 -8 -33 -18 -33 -24 0 -14 42 -41 53 -34 5 3 -2 -11
-16 -32 -14 -20 -23 -44 -20 -51 16 -41 83 -37 116 7 27 37 56 39 50 4 -7 -32
34 -53 75 -39 55 19 66 103 13 97 -12 -2 -21 2 -21 7 0 6 -34 10 -80 10 -78 0
-80 1 -80 24 0 36 -19 47 -57 31z"/>
<path d="M2807 3100 c-38 -40 -34 -75 8 -75 25 0 33 6 48 38 17 38 17 39 0 53
-24 18 -24 18 -56 -16z"/>
<path d="M9646 3109 c-10 -7 -70 -11 -145 -10 -143 2 -355 -23 -388 -45 -34
-22 -32 -82 5 -115 66 -62 221 -117 467 -169 406 -85 477 -98 560 -104 83 -7
94 -5 134 16 62 33 68 46 47 104 -13 34 -38 68 -84 112 -102 97 -217 152 -413
196 -128 29 -155 31 -183 15z m229 -96 c215 -80 422 -224 401 -280 -12 -31
-109 -11 -231 47 -143 67 -185 82 -199 71 -6 -5 -51 -12 -101 -16 -85 -6 -95
-5 -167 23 -43 17 -108 47 -145 68 l-68 38 33 13 c18 7 83 16 143 20 89 5 112
10 122 24 25 35 102 32 212 -8z m-556 -2 c-33 -33 -36 -56 -12 -83 24 -27 7
-22 -76 20 -108 54 -105 63 22 82 99 14 100 14 66 -19z"/>
<path d="M10840 2778 c-49 -14 -55 -22 -35 -56 16 -27 23 -30 90 -35 39 -4
135 -23 211 -42 76 -20 362 -88 634 -151 398 -92 531 -127 680 -179 215 -76
235 -78 245 -34 6 28 2 36 -31 69 -35 34 -57 44 -199 85 -88 26 -250 64 -360
85 -110 21 -272 54 -360 74 -88 19 -236 49 -330 66 -158 29 -350 77 -454 114
-49 18 -44 18 -91 4z"/>
<path d="M4524 2616 c-38 -17 -47 -30 -39 -55 14 -45 127 -53 140 -9 9 25 -23
72 -51 75 -10 2 -33 -4 -50 -11z"/>
<path d="M5180 2342 c-13 -11 -22 -29 -22 -45 0 -15 -4 -30 -9 -33 -5 -3 -9
-14 -9 -24 0 -55 93 -70 142 -23 75 71 -22 190 -102 125z"/>
<path d="M8851 2104 c-47 -20 -39 -52 19 -81 87 -43 87 -44 59 -59 -16 -8 -30
-28 -37 -51 -6 -21 -18 -47 -26 -58 -12 -17 -11 -24 6 -60 17 -35 32 -48 94
-78 87 -43 120 -45 282 -21 86 14 125 26 197 61 50 24 105 58 124 75 30 26 32
33 25 60 -7 24 -19 33 -59 48 -27 10 -77 29 -110 44 -48 20 -76 25 -140 25
-44 0 -97 -6 -117 -13 -21 -8 -38 -10 -38 -6 0 12 -170 107 -211 118 -26 7
-44 6 -68 -4z"/>
<path d="M7 2044 c-4 -4 -7 -22 -7 -41 0 -26 4 -33 19 -33 42 0 57 72 16 78
-12 2 -24 0 -28 -4z"/>
<path d="M3145 2044 c-65 -8 -105 -25 -105 -43 0 -15 -8 -17 -62 -13 -35 3
-80 13 -100 23 -49 25 -66 24 -80 -5 -15 -34 -6 -50 44 -80 34 -20 64 -27 131
-32 53 -4 87 -11 86 -18 0 -6 -10 -38 -22 -71 l-22 -60 -70 0 c-39 0 -93 3
-121 8 -69 10 -76 -8 -26 -59 l37 -38 -32 -6 c-36 -8 -113 -65 -113 -85 0 -7
7 -18 15 -25 13 -10 30 -9 93 5 42 10 95 26 117 36 46 20 162 106 254 187 l61
54 -7 -34 c-3 -18 -12 -53 -19 -78 -10 -33 -10 -46 -2 -51 7 -5 0 -10 -18 -14
-16 -4 -35 -8 -41 -11 -18 -5 -16 -41 2 -48 8 -3 15 -11 15 -18 0 -6 12 -25
28 -41 l27 -29 -27 -23 c-15 -13 -37 -30 -49 -38 -26 -19 -19 -53 9 -44 9 3
58 20 109 37 l92 32 24 51 c23 51 47 203 47 300 0 63 -37 129 -80 144 l-35 12
45 1 c25 1 63 4 85 8 36 7 40 10 40 37 l0 30 -150 1 c-82 1 -163 0 -180 -2z"/>
<path d="M3429 1941 c-23 -19 -23 -21 -8 -48 23 -39 96 -74 185 -86 82 -12
125 0 132 36 5 27 -39 63 -88 71 -25 4 -74 16 -109 26 -78 25 -83 25 -112 1z"/>
<path d="M4194 1930 c-75 -11 -120 -62 -95 -109 10 -18 66 -31 133 -31 63 0
106 44 92 96 -7 27 -78 51 -130 44z"/>
<path d="M8013 1878 c-28 -14 -43 -57 -43 -127 0 -73 -26 -296 -40 -341 -38
-127 -33 -218 15 -253 23 -17 26 -17 50 -1 25 16 26 20 20 80 -5 45 -3 76 8
111 9 26 20 80 26 118 17 113 38 171 83 222 22 27 45 51 51 55 10 6 -35 87
-71 131 -17 19 -65 22 -99 5z"/>
<path d="M5500 1835 c-69 -12 -170 -35 -225 -49 -72 -20 -128 -28 -198 -30
-85 -1 -101 -4 -113 -21 -17 -23 -18 -81 -1 -92 29 -19 159 -2 357 47 112 27
209 50 214 50 5 0 -9 -13 -32 -29 -22 -16 -43 -34 -46 -40 -12 -19 18 -59 86
-116 37 -30 86 -78 108 -106 38 -48 59 -61 288 -176 341 -172 699 -327 938
-407 122 -40 209 -75 220 -87 17 -19 17 -22 -1 -90 l-18 -71 24 -75 c16 -52
32 -82 52 -99 27 -23 34 -24 110 -18 45 4 87 12 93 18 6 6 26 49 45 94 40 99
79 148 134 167 l40 13 7 109 7 108 -54 51 c-65 60 -99 72 -243 84 -59 5 -213
30 -342 54 l-235 44 -220 108 c-199 97 -229 115 -315 190 -91 78 -97 86 -129
165 -18 46 -44 103 -58 127 l-24 42 -65 0 c-36 0 -74 -5 -85 -10 -16 -9 -19
-7 -19 15 0 31 -21 40 -110 47 -44 4 -105 -2 -190 -17z m245 -79 c5 -1 -1 -8
-14 -15 -19 -11 -28 -11 -47 0 -13 7 -24 15 -24 19 0 5 59 3 85 -4z"/>
<path d="M7127 1783 c-5 -8 -11 -85 -8 -115 1 -12 9 -18 27 -18 57 0 78 33 52
83 -6 12 -14 29 -18 37 -8 17 -45 26 -53 13z"/>
<path d="M2066 1738 c-19 -26 -5 -48 29 -48 29 0 39 33 16 54 -23 21 -27 20
-45 -6z"/>
<path d="M6759 1469 c-8 -5 -29 -9 -48 -9 -26 0 -42 -9 -68 -37 -19 -20 -49
-44 -66 -52 -31 -16 -51 -58 -38 -79 14 -23 64 -41 84 -30 25 13 134 13 150
-1 18 -14 82 -3 101 18 8 9 17 37 21 62 7 46 6 47 -39 85 -54 45 -77 56 -97
43z"/>
<path d="M7107 1399 c-13 -32 -14 -46 -5 -63 17 -33 40 -56 55 -56 8 0 40 -20
71 -44 31 -24 90 -64 131 -91 143 -91 347 -248 421 -325 62 -64 82 -79 115
-84 22 -3 45 -3 51 1 6 5 22 32 34 61 l23 54 -21 42 c-18 37 -28 46 -81 66
-34 12 -98 50 -144 84 -104 79 -274 192 -413 276 -60 36 -117 74 -129 86 -11
12 -36 24 -56 28 -35 6 -36 5 -52 -35z"/>
<path d="M8806 1302 c-14 -21 -26 -43 -26 -49 0 -6 25 -33 55 -58 51 -44 67
-51 237 -100 101 -29 264 -82 363 -117 99 -36 364 -120 588 -188 368 -112 409
-126 420 -149 8 -18 39 -37 101 -65 l88 -41 23 29 22 28 56 -16 c30 -9 80 -16
111 -16 50 0 61 4 92 33 32 29 35 35 24 57 -6 14 -29 38 -52 54 -36 26 -60 32
-227 56 -150 23 -227 40 -401 93 -118 36 -302 91 -408 122 -106 31 -272 85
-370 121 -97 36 -273 99 -391 140 -118 41 -227 82 -242 90 -15 7 -30 14 -32
14 -2 0 -16 -17 -31 -38z"/>
<path d="M3898 1070 c-21 -12 -56 -47 -82 -82 -69 -97 -123 -143 -186 -162
-30 -8 -63 -21 -74 -29 -17 -13 -17 -15 -2 -45 25 -49 52 -49 143 -4 54 28 89
53 108 79 16 21 53 66 82 100 50 58 58 63 113 74 76 15 91 31 60 64 -19 20
-33 25 -74 25 -31 -1 -66 -9 -88 -20z"/>
<path d="M6040 689 c-97 -16 -130 -38 -130 -87 0 -30 52 -36 100 -12 22 11 50
20 63 20 14 0 39 3 56 6 28 6 31 10 31 45 0 38 -1 39 -32 38 -18 -1 -58 -5
-88 -10z"/>
<path d="M4940 611 c-19 -10 -52 -26 -72 -35 -42 -18 -52 -50 -18 -61 17 -5
94 8 173 31 17 5 24 34 8 34 -5 0 -11 10 -13 23 -4 29 -33 32 -78 8z"/>
<path d="M6803 519 c-24 -24 -12 -79 16 -79 27 -1 94 -36 130 -69 19 -17 36
-31 38 -31 8 0 33 62 33 83 0 31 -29 57 -64 57 -15 0 -41 9 -56 20 -37 26 -82
35 -97 19z"/>
<path d="M8968 423 c-31 -5 -41 -24 -28 -57 12 -34 18 -35 80 -24 64 12 85 28
76 56 -10 29 -50 37 -128 25z"/>
<path d="M9365 383 c-16 -3 -37 -11 -46 -19 -9 -8 -76 -28 -150 -44 -167 -38
-199 -51 -199 -85 0 -15 9 -31 25 -41 24 -16 30 -15 123 19 53 20 138 44 187
52 123 22 135 28 135 64 0 16 -3 36 -6 45 -6 16 -13 17 -69 9z"/>
<path d="M8787 373 c-2 -5 -10 -25 -16 -45 -7 -21 -16 -38 -20 -38 -5 0 -23
11 -42 25 -58 42 -77 49 -106 39 -19 -6 -29 -19 -35 -43 l-9 -33 -62 5 c-34 2
-138 19 -231 36 -199 38 -227 38 -241 -3 -8 -24 -6 -31 16 -50 21 -18 54 -25
215 -45 104 -13 193 -25 197 -28 5 -3 6 -11 3 -19 -7 -17 4 -23 94 -56 73 -26
110 -25 110 4 0 6 12 8 31 4 38 -7 59 7 59 40 0 18 -8 25 -37 33 -21 6 -48 11
-60 11 -14 0 -23 6 -23 15 0 21 51 9 119 -27 30 -15 59 -28 65 -28 18 0 41 69
27 83 -6 6 -11 32 -11 57 0 25 -5 51 -12 58 -14 14 -25 15 -31 5z"/>
<path d="M8166 143 c-13 -13 -5 -39 19 -66 29 -31 29 -31 56 -17 20 11 24 27
11 47 -10 16 -78 44 -86 36z"/>
<path d="M8266 111 c-8 -12 26 -53 60 -72 20 -12 36 -14 52 -8 24 9 27 21 12
49 -15 28 -111 52 -124 31z"/>
<path d="M7852 87 c-21 -25 1 -53 45 -61 21 -3 66 -6 99 -6 51 0 62 3 66 18
10 38 -14 52 -108 58 -74 6 -92 4 -102 -9z"/>
<path d="M8651 76 c-40 -14 -57 -36 -48 -60 14 -36 117 3 117 45 0 13 -23 33
-33 28 -1 0 -17 -6 -36 -13z"/>
</g>
</svg>
