<?xml version="1.0" standalone="no"?>
<!DOCTYPE svg PUBLIC "-//W3C//DTD SVG 20010904//EN"
 "http://www.w3.org/TR/2001/REC-SVG-20010904/DTD/svg10.dtd">
<svg version="1.0" xmlns="http://www.w3.org/2000/svg"
 width="900.000000pt" height="1280.000000pt" viewBox="0 0 900.000000 1280.000000"
 preserveAspectRatio="xMidYMid meet">
<metadata>
Created by potrace 1.15, written by Peter Selinger 2001-2017
</metadata>
<g transform="translate(0.000000,1280.000000) scale(0.100000,-0.100000)"
fill="#000000" stroke="none">
<path d="M5315 12784 c-38 -8 -113 -36 -165 -62 -78 -38 -110 -61 -181 -132
-121 -119 -170 -229 -170 -376 0 -73 17 -120 71 -189 36 -46 42 -62 54 -148
15 -98 42 -166 74 -189 11 -7 29 -32 41 -55 15 -31 30 -45 52 -50 20 -6 37
-21 53 -48 20 -37 25 -40 59 -37 52 4 72 -10 103 -75 55 -116 66 -124 217
-163 l48 -13 -21 -21 c-26 -29 -10 -46 36 -39 21 3 34 1 34 -5 0 -6 3 -17 6
-25 4 -11 -12 -26 -50 -51 -47 -30 -76 -60 -76 -80 0 -11 41 -6 77 9 29 12 38
13 45 3 17 -28 6 -44 -55 -74 -36 -18 -63 -38 -66 -49 -3 -16 3 -17 62 -11 60
6 65 5 70 -15 6 -23 -1 -49 -13 -49 -5 0 -25 -16 -45 -34 -27 -25 -52 -38 -93
-47 -89 -18 -155 -46 -200 -84 l-41 -36 -98 20 c-54 11 -143 23 -198 27 -92 6
-105 10 -164 45 -70 42 -97 47 -127 24 -18 -15 -18 -16 16 -46 21 -19 27 -28
15 -24 -11 5 -40 10 -64 13 -28 3 -51 12 -60 23 -27 33 -106 36 -171 8 -49
-22 -69 -24 -190 -23 -143 1 -310 19 -553 60 -269 45 -848 174 -899 200 -18 9
-67 44 -108 77 -41 33 -90 66 -108 74 -30 12 -36 12 -61 -7 -27 -18 -32 -19
-68 -6 -43 15 -53 12 -71 -19 -10 -18 -11 -16 -12 18 0 25 -5 37 -14 37 -7 0
-19 6 -25 14 -7 8 -56 24 -109 36 -125 28 -244 62 -582 167 -785 243 -946 288
-974 275 -15 -7 -25 -6 -34 4 -9 9 -9 14 -2 14 7 0 10 14 8 35 -1 22 3 39 11
44 18 11 -11 68 -42 82 -20 9 -20 9 6 6 15 -3 30 0 33 4 3 5 -4 48 -16 95 -16
64 -21 112 -20 183 3 123 3 121 -17 121 -15 0 -15 2 -4 9 12 8 9 16 -15 46
-58 73 -75 101 -84 136 -7 24 -28 51 -66 84 -30 27 -64 65 -75 84 -11 20 -31
54 -45 76 -23 36 -25 37 -21 13 2 -16 0 -28 -4 -28 -5 0 -9 3 -9 8 0 4 -9 18
-20 32 -19 25 -19 25 -2 -40 12 -46 26 -74 48 -95 18 -16 46 -51 63 -77 18
-27 36 -48 41 -48 6 0 10 -5 10 -11 0 -6 11 -25 24 -42 22 -31 71 -147 61
-147 -3 0 -23 36 -45 80 -25 50 -49 84 -63 90 -12 5 -18 9 -12 9 5 1 -17 27
-50 59 -68 66 -132 141 -158 186 l-18 31 7 -30 c4 -16 10 -47 14 -68 7 -35 49
-87 70 -87 9 0 23 -20 75 -104 17 -29 18 -29 33 -10 13 17 14 17 9 1 -4 -11 4
-33 23 -58 16 -22 39 -70 51 -107 12 -37 25 -71 29 -77 4 -5 8 -21 8 -35 0
-14 7 -52 16 -85 20 -79 31 -175 20 -175 -6 0 -17 12 -26 28 -18 30 -58 187
-58 226 0 32 -32 43 -65 22 -31 -20 -31 -30 -2 -53 22 -18 55 -115 75 -223 8
-44 9 -45 41 -42 22 2 31 0 26 -7 -3 -6 -13 -11 -21 -11 -8 0 -14 -5 -14 -12
0 -7 -7 -5 -18 5 -21 19 -52 6 -52 -23 0 -20 53 -70 75 -70 7 0 18 -6 24 -14
15 -18 57 -26 70 -13 16 16 13 -5 -3 -26 -8 -10 -17 -14 -20 -9 -3 5 -22 13
-41 16 -46 9 -112 68 -120 107 -4 17 -13 33 -20 36 -8 2 -12 10 -9 17 3 7 -11
25 -31 40 -27 21 -39 41 -53 88 -11 39 -24 64 -37 70 -29 13 -71 76 -84 125
-13 46 -26 61 -35 38 -3 -8 -12 -15 -21 -15 -20 0 -19 -9 5 -35 12 -13 24 -45
29 -76 5 -29 14 -55 20 -57 6 -2 11 -12 11 -23 0 -12 9 -21 26 -25 19 -5 33
-21 50 -58 13 -28 24 -56 24 -61 0 -6 7 -21 16 -33 15 -23 17 -23 36 -5 19 17
19 17 8 -9 -11 -22 -9 -32 15 -72 15 -25 33 -49 40 -54 7 -4 25 -33 39 -64 23
-54 27 -58 58 -58 18 0 47 9 65 20 30 18 33 18 42 2 9 -15 13 -15 32 -4 22 14
22 13 15 -35 -6 -48 -5 -49 26 -65 18 -8 52 -25 75 -37 41 -20 72 -29 321 -91
257 -63 666 -195 816 -262 122 -55 178 -92 261 -173 76 -73 120 -105 148 -105
20 0 21 4 6 45 -10 28 -9 37 13 76 14 24 32 62 39 84 l12 40 8 -30 c7 -22 3
-42 -16 -83 -14 -30 -25 -56 -25 -59 0 -2 20 -24 45 -50 27 -27 45 -54 45 -68
0 -41 47 -46 111 -11 108 59 215 59 619 1 519 -73 677 -96 760 -110 365 -60
567 -116 637 -178 30 -27 34 -35 31 -71 -3 -40 -2 -41 37 -54 58 -20 167 -12
202 14 41 30 69 77 77 125 8 51 -5 70 -35 50 -31 -19 -43 -2 -30 46 9 32 17
41 47 52 30 11 38 11 45 0 13 -21 10 -86 -6 -154 -19 -80 -19 -125 0 -125 19
0 19 6 -5 -120 -35 -185 -26 -345 31 -516 l20 -61 -21 -44 c-25 -55 -25 -131
-1 -184 17 -39 17 -41 -1 -70 -26 -43 -24 -115 4 -151 19 -23 23 -41 23 -99 0
-57 5 -79 26 -116 19 -35 24 -51 16 -64 -17 -31 0 -86 39 -126 36 -37 36 -37
19 -69 -9 -17 -19 -63 -22 -101 -10 -121 36 -195 130 -206 l42 -5 -33 27 c-75
61 -103 166 -67 251 13 33 17 35 48 29 40 -8 86 12 109 47 8 13 21 46 27 75 9
36 19 54 32 58 11 4 35 21 53 39 47 48 133 77 241 83 106 6 120 -2 128 -64 l5
-43 -71 0 c-202 -1 -375 -100 -470 -270 -60 -108 -54 -109 44 -12 107 106 171
153 247 182 53 20 139 26 201 14 29 -6 31 -9 31 -54 0 -46 -1 -47 -39 -58 -21
-7 -48 -12 -60 -12 -16 0 -21 -6 -21 -26 0 -14 -5 -34 -11 -45 -10 -19 -8 -20
35 -14 25 4 56 5 69 1 21 -5 24 -11 21 -41 -7 -88 -10 -92 -83 -111 -65 -17
-68 -19 -89 -63 -11 -25 -20 -46 -19 -47 1 -1 28 3 59 9 37 6 69 7 90 1 l33
-10 -1 -64 c-3 -112 3 -103 -56 -80 -28 11 -53 18 -55 16 -7 -7 -31 -111 -27
-118 3 -4 26 -4 53 -1 44 5 50 3 62 -18 7 -13 13 -51 14 -85 l2 -61 -45 9
c-25 4 -48 10 -50 13 -7 7 -40 -68 -35 -77 2 -5 27 -8 55 -8 68 0 90 -18 76
-66 -6 -22 -6 -46 1 -67 28 -92 33 -116 26 -136 -3 -11 -10 -21 -13 -21 -4 0
-22 27 -40 60 -44 80 -64 80 -142 2 -48 -49 -62 -70 -79 -126 -24 -78 -26
-112 -9 -168 16 -53 44 -73 133 -93 73 -16 75 -17 85 -53 5 -20 10 -41 10 -46
0 -19 53 -78 91 -102 21 -13 39 -31 39 -39 0 -8 8 -23 19 -34 10 -10 21 -30
25 -44 11 -47 133 -183 172 -193 30 -8 66 21 85 69 7 18 21 52 32 77 11 25 22
63 24 85 7 78 16 110 40 139 42 51 55 85 54 152 l0 64 71 42 c85 50 100 77 88
155 -11 64 -31 103 -83 161 -45 48 -125 92 -170 92 -32 0 -40 -15 -57 -102
-15 -77 -35 -77 -26 -1 4 31 11 62 16 68 8 10 12 33 19 106 2 13 54 29 96 29
l43 0 -16 41 c-13 33 -19 39 -36 34 -65 -19 -84 -18 -91 5 -36 112 -16 157 64
145 l44 -7 -7 34 c-4 18 -9 48 -13 66 -5 32 -20 41 -39 23 -5 -5 -26 -14 -46
-19 -39 -11 -44 -6 -39 36 1 8 -3 20 -10 28 -7 9 -14 30 -16 48 -3 29 1 35 27
46 19 8 54 11 95 7 36 -2 65 -4 65 -2 0 1 -12 23 -26 49 -19 35 -32 46 -50 46
-13 0 -44 5 -69 12 -40 11 -47 17 -57 49 -16 57 -6 72 45 67 23 -3 49 -8 58
-12 13 -6 16 0 15 39 -1 25 -5 45 -9 45 -28 0 -106 45 -112 63 -10 33 -13 85
-5 97 3 5 41 18 84 27 64 14 87 15 133 5 83 -17 187 -73 291 -157 51 -41 95
-75 98 -75 12 0 -84 129 -128 172 -58 56 -171 114 -253 129 -34 6 -97 9 -145
5 l-85 -5 1 32 c1 18 2 44 3 59 3 80 255 59 424 -36 59 -32 71 -45 88 -84 27
-62 44 -80 90 -92 35 -10 40 -15 54 -62 8 -28 15 -59 15 -67 0 -37 -23 -94
-55 -136 -39 -51 -30 -58 34 -25 73 37 103 156 66 261 -15 41 -15 43 9 68 58
63 80 127 56 171 -7 13 -4 30 10 62 20 45 27 142 11 167 -6 9 0 30 16 62 29
56 26 96 -11 152 -22 32 -22 36 -9 68 21 48 12 117 -22 175 -21 35 -28 62 -30
103 -1 52 -31 134 -67 182 -9 14 -6 30 19 85 17 38 43 122 58 187 24 99 32
120 50 127 22 9 35 43 50 138 10 60 22 52 17 -11 -3 -41 1 -63 17 -95 21 -41
111 -122 136 -122 7 0 20 11 29 25 41 62 171 11 389 -153 208 -156 991 -834
1101 -952 l59 -64 -39 -34 c-111 -95 -201 -165 -429 -333 -394 -291 -453 -332
-578 -404 -94 -55 -131 -70 -180 -77 -86 -12 -132 -36 -132 -70 -1 -15 -4 -30
-8 -34 -11 -11 -8 -39 5 -52 6 -6 12 -20 13 -30 1 -16 -5 -18 -55 -14 -51 4
-59 2 -74 -19 -10 -15 -16 -44 -16 -81 0 -31 -4 -59 -10 -63 -5 -3 -12 -33
-16 -66 -4 -32 -10 -62 -14 -64 -5 -3 -24 17 -44 43 -117 160 -283 250 -440
240 -111 -7 -188 -50 -303 -167 -51 -52 -93 -100 -93 -107 0 -7 28 -35 63 -62
194 -155 246 -264 248 -520 1 -158 -13 -181 -192 -325 -79 -64 -160 -131 -180
-150 -22 -22 -40 -33 -47 -28 -15 9 -132 -7 -148 -20 -7 -5 -30 0 -60 15 -27
13 -78 34 -114 48 -250 96 -260 101 -300 141 -69 71 -114 221 -114 382 0 131
19 186 110 320 30 46 53 89 49 95 -3 5 -23 19 -43 29 -20 10 -66 35 -102 54
-134 73 -252 85 -374 37 -84 -32 -188 -138 -243 -245 -96 -186 -117 -397 -49
-497 31 -47 104 -88 170 -97 31 -4 61 -12 67 -18 6 -6 18 -37 28 -69 l17 -59
135 0 c145 -1 189 -10 251 -54 88 -62 114 -190 63 -311 -26 -62 -32 -121 -16
-163 27 -70 82 -75 167 -17 33 22 105 58 161 80 104 40 160 71 200 109 14 13
24 17 28 10 8 -12 85 -3 131 16 27 11 40 10 90 -7 36 -12 106 -23 179 -28 66
-5 151 -18 189 -29 38 -11 80 -18 92 -15 50 13 71 73 48 139 -7 22 -14 41 -14
42 0 1 7 0 15 -3 12 -5 15 3 15 35 0 29 5 44 16 48 25 9 146 -80 173 -127 24
-42 81 -230 81 -265 0 -11 -14 -76 -30 -145 -17 -69 -48 -204 -71 -300 -70
-302 -79 -340 -126 -530 -105 -428 -251 -942 -281 -989 -22 -36 -130 -169
-143 -177 -13 -8 -59 35 -104 96 -86 117 -545 889 -833 1399 l-206 366 -4 106
c-6 162 15 229 103 322 34 35 55 32 70 -13 6 -19 15 -35 20 -35 18 0 47 112
48 185 2 88 -23 143 -86 194 -32 26 -48 31 -107 34 -62 4 -74 1 -128 -28 -34
-18 -63 -38 -66 -45 -3 -8 8 -30 25 -51 16 -20 29 -39 29 -41 0 -2 -11 -25
-24 -51 -13 -26 -32 -73 -42 -105 -16 -51 -21 -58 -40 -53 -12 3 -35 1 -52 -5
-60 -21 -79 -84 -58 -192 8 -40 20 -108 26 -152 6 -44 20 -111 32 -150 19 -61
30 -78 88 -135 77 -75 104 -112 239 -327 224 -358 553 -971 644 -1201 37 -92
37 -92 37 -245 0 -145 1 -156 26 -205 14 -29 30 -52 36 -52 5 0 6 -9 3 -20 -4
-14 3 -32 25 -60 46 -59 158 -153 183 -155 13 -1 23 -9 25 -21 5 -24 41 -64
59 -64 10 0 12 -7 8 -19 -4 -14 4 -31 28 -58 22 -24 38 -56 45 -88 50 -224 40
-790 -24 -1400 -43 -412 -60 -522 -90 -566 -45 -65 -57 -237 -20 -265 17 -12
62 -6 136 16 46 13 116 13 180 -2 56 -13 75 -3 66 35 -5 21 7 22 24 2 18 -22
57 -19 71 7 13 23 9 132 -12 323 -19 187 -3 385 57 665 11 56 18 173 24 453 4
208 10 381 13 383 7 7 106 -99 240 -256 126 -147 173 -191 347 -325 137 -106
313 -275 381 -365 27 -36 83 -129 125 -208 78 -147 116 -202 138 -202 7 0 31
24 52 53 32 42 56 61 124 95 124 63 130 68 130 102 0 23 -15 46 -68 101 -64
68 -71 72 -124 79 -99 14 -264 109 -418 241 -323 278 -627 660 -809 1014 -35
70 -51 113 -51 140 0 21 -7 46 -15 55 -13 14 -14 22 -4 43 15 33 -7 81 -39 85
-16 2 -22 8 -18 18 3 8 9 51 12 96 8 94 -1 108 -70 108 l-41 0 41 19 c23 10
54 36 70 56 24 32 29 49 32 109 3 60 -2 89 -32 184 -40 127 -43 162 -21 313
57 405 210 1068 337 1458 37 114 45 130 93 180 99 105 116 165 91 318 -8 54
-20 135 -25 180 -10 83 -29 126 -62 143 -29 16 -82 11 -124 -10 -22 -11 -43
-20 -47 -20 -4 0 -25 26 -47 58 -21 31 -51 68 -65 81 -29 27 -33 59 -12 100 8
15 11 32 8 37 -14 20 -72 36 -131 36 -83 0 -144 -30 -182 -90 -25 -40 -29 -56
-29 -116 0 -60 6 -82 34 -141 30 -61 31 -66 10 -40 -121 146 -83 323 85 399
34 15 93 34 133 42 93 19 111 37 102 104 -4 30 -2 55 6 66 10 17 11 16 6 -6
-5 -24 -4 -24 9 -6 8 11 15 23 15 28 0 4 17 16 38 27 53 27 109 92 122 142 14
50 5 123 -22 197 -20 53 -20 54 0 75 14 16 20 38 21 77 2 73 16 106 69 162 39
40 47 45 63 35 11 -7 19 -15 19 -20 0 -4 -5 -5 -10 -2 -13 8 -60 -21 -60 -36
0 -6 -11 -20 -24 -30 -34 -27 -49 -74 -30 -94 22 -21 45 -19 51 6 3 12 9 16
12 10 10 -16 65 3 71 25 5 18 6 18 27 -4 l22 -22 -35 -15 c-37 -15 -37 -17 -2
-65 11 -15 24 -68 34 -135 10 -62 23 -118 32 -127 11 -13 12 -18 2 -18 -9 0
-11 -17 -6 -72 7 -78 -10 -178 -31 -185 -17 -6 -33 61 -33 140 l0 67 -34 0
c-19 0 -38 -5 -41 -10 -4 -6 5 -45 19 -88 31 -93 31 -158 1 -166 -11 -2 -42
-13 -70 -23 l-50 -18 42 -5 c24 -4 45 -8 47 -11 3 -3 -19 -24 -50 -49 -30 -24
-53 -44 -51 -46 1 -2 25 4 52 13 28 9 56 18 63 20 9 2 11 11 7 25 -6 23 -6 23
10 3 15 -20 16 -19 21 3 4 12 10 22 15 22 16 0 10 -16 -16 -40 -14 -13 -25
-29 -25 -37 0 -7 -4 -13 -9 -13 -5 0 -11 -21 -14 -47 -3 -27 -8 -59 -12 -73
-4 -17 0 -13 15 13 12 21 30 47 40 57 11 11 22 31 26 45 9 35 24 31 25 -7 2
-42 3 -47 17 -83 26 -64 33 -72 27 -33 -3 20 -1 39 5 43 11 7 10 55 -2 71 -5
7 -11 34 -15 62 -5 45 -3 54 28 95 19 26 40 46 46 47 13 0 16 12 28 83 3 20
21 67 40 102 30 58 32 66 17 75 -16 9 -16 9 -1 10 24 0 30 24 12 49 -28 41
-74 184 -80 250 -3 36 -10 74 -15 84 -8 16 -11 16 -31 2 -30 -21 -47 -19 -20
3 21 16 32 61 22 87 -2 6 20 32 50 60 29 27 63 70 76 96 37 71 191 203 413
351 426 285 575 360 748 378 167 17 228 41 288 111 51 60 49 71 -7 43 l-32
-16 26 28 c43 48 56 76 62 137 l6 58 -39 25 c-29 20 -40 34 -42 57 -4 42 -41
60 -175 86 -56 11 -112 25 -125 32 -59 31 -588 426 -733 548 -321 269 -473
426 -502 520 -24 73 -86 141 -131 141 -21 0 -35 7 -42 20 -15 28 -62 50 -107
51 -33 0 -35 1 -15 9 48 20 10 70 -54 70 -21 0 -75 -7 -118 -15 -64 -12 -91
-13 -138 -4 -77 15 -134 7 -167 -25 -23 -22 -37 -26 -83 -26 -47 0 -70 7 -138
43 -72 37 -91 42 -153 44 -43 1 -96 10 -131 22 -36 13 -84 21 -123 21 -58 0
-68 3 -103 33 -32 25 -40 39 -40 65 0 33 1 33 33 27 17 -4 39 -9 49 -11 24 -7
32 15 13 36 -9 10 -37 27 -61 37 -41 17 -44 20 -38 48 3 17 7 31 9 33 1 1 22
-9 46 -23 50 -28 69 -31 69 -11 0 13 -64 76 -107 106 -17 11 -21 22 -16 42 5
27 6 27 34 13 36 -19 39 -19 39 4 0 11 -13 32 -29 47 l-30 28 37 36 c21 19 68
87 106 149 66 110 68 116 63 165 -3 28 -13 76 -22 106 -19 65 -13 97 20 112
32 14 36 27 23 78 -9 35 -8 47 5 70 13 22 14 34 6 61 -6 19 -11 61 -13 95 -2
63 -18 98 -79 177 -36 46 -56 99 -57 148 0 68 -30 131 -89 189 -130 127 -330
177 -536 134z m-4800 -812 c6 -85 -10 -42 -19 50 -4 45 -3 57 4 40 5 -12 12
-53 15 -90z m-15 -198 c0 -14 -3 -14 -15 -4 -8 7 -15 14 -15 16 0 2 7 4 15 4
8 0 15 -7 15 -16z m20 -69 c-7 -9 -15 -13 -17 -11 -7 7 7 26 19 26 6 0 6 -6
-2 -15z m1144 -476 c87 -28 156 -52 154 -54 -7 -7 -358 102 -358 111 0 7 7 4
204 -57z m4385 -511 c96 -22 57 -39 -92 -41 -102 -2 -108 -1 -105 18 5 33 105
45 197 23z m-416 -37 c4 -16 -4 -19 -72 -25 -42 -3 -109 -15 -149 -26 -86 -24
-88 -24 -71 -4 34 41 129 71 230 73 47 1 57 -2 62 -18z m1427 -31 c0 -5 -7
-10 -16 -10 -8 0 -32 -18 -51 -40 -20 -22 -40 -40 -44 -40 -4 0 -12 14 -18 32
-10 29 -12 30 -29 15 -23 -21 -32 -21 -32 -3 0 17 19 24 114 41 39 7 72 14 74
14 1 1 2 -3 2 -9z m-1049 -52 c-7 -19 -20 -25 -69 -33 -33 -5 -64 -13 -68 -17
-15 -16 -24 -7 -14 12 6 11 8 25 5 30 -7 12 46 24 127 29 24 1 26 -1 19 -21z
m-865 0 c79 -14 83 -31 22 -88 l-43 -39 -7 41 c-4 24 -19 53 -35 70 -30 32
-26 33 63 16z m493 -34 c13 -30 8 -42 -11 -27 -7 6 -43 16 -80 24 -38 7 -68
16 -68 21 0 4 33 8 73 8 70 0 74 -1 86 -26z m-181 -50 c113 -30 117 -33 103
-47 -6 -6 -11 -19 -11 -29 0 -23 -11 -23 -41 0 -37 29 -58 35 -144 41 -64 5
-80 9 -83 23 -4 18 45 50 66 43 6 -2 56 -16 110 -31z m532 -38 c0 -26 -5 -35
-22 -39 -27 -8 -28 -6 -31 29 -2 22 3 29 23 35 14 4 26 7 28 8 1 1 2 -14 2
-33z m10 -131 c0 -10 -10 -15 -32 -15 -31 1 -32 1 -14 15 25 19 46 19 46 0z
m10 -59 c0 -7 3 -28 6 -45 7 -36 -4 -40 -50 -16 -15 8 -35 15 -42 15 -12 0
-12 5 1 30 13 25 22 30 50 30 23 0 35 -5 35 -14z m33 -173 c2 -5 7 -20 10 -34
l7 -26 -63 20 c-72 23 -71 22 -62 36 7 12 102 15 108 4z m-443 -32 c0 -5 -7
-11 -15 -15 -15 -5 -20 5 -8 17 9 10 23 9 23 -2z m491 -182 c10 -5 26 -36 37
-69 19 -56 20 -60 3 -60 -25 0 -124 30 -135 41 -6 5 -20 9 -32 9 -17 0 -23 8
-27 37 -7 43 -8 43 35 53 35 9 92 4 119 -11z m-485 -22 c3 -2 8 -21 11 -41 4
-29 2 -36 -10 -36 -9 0 -33 -11 -53 -25 -61 -41 -184 -70 -198 -46 -10 15 84
125 122 144 34 16 113 19 128 4z m1004 -68 c0 -6 -4 -7 -10 -4 -5 3 -10 11
-10 16 0 6 5 7 10 4 6 -3 10 -11 10 -16z m-24 -92 l35 -32 -23 -34 c-38 -57
-44 -57 -143 -13 -83 38 -87 41 -65 51 14 5 42 12 62 16 20 3 47 14 60 25 31
26 33 25 74 -13z m-454 -33 c37 -11 59 -23 63 -35 7 -22 29 -27 74 -18 27 6
51 1 113 -24 43 -18 78 -36 78 -40 0 -5 -42 -7 -93 -6 -51 2 -99 -1 -106 -5
-25 -16 -181 29 -233 66 -16 11 -35 17 -43 15 -9 -4 -17 5 -24 25 -6 17 -11
33 -11 34 0 11 132 2 182 -12z m-507 -43 c-4 -17 -13 -31 -20 -31 -7 0 -36
-15 -64 -34 -63 -43 -151 -76 -194 -75 -18 1 -69 -4 -115 -11 -46 -7 -85 -10
-88 -7 -11 11 222 137 252 137 6 0 33 10 60 22 40 18 160 40 172 32 2 -2 1
-16 -3 -33z m1065 -88 c0 -48 -1 -49 -35 -27 l-24 16 22 38 c25 45 37 36 37
-27z m-1740 -78 c21 -35 21 -37 5 -55 -24 -27 -32 -25 -40 9 -5 25 2 81 10 81
2 0 13 -16 25 -35z m1258 -21 c72 -25 86 -32 53 -28 -48 7 -169 46 -198 64
-30 19 37 2 145 -36z m432 -2 c0 -4 -16 -18 -35 -31 -39 -26 -52 -25 -136 13
l-54 25 35 1 c19 0 58 9 85 18 48 17 51 17 78 -1 15 -10 27 -21 27 -25z
m-1080 13 c0 -14 -247 -122 -256 -112 -2 2 40 24 93 49 156 72 163 74 163 63z
m485 -149 l79 -89 -40 6 c-21 4 -63 10 -91 13 -59 8 -56 1 -57 115 -1 80 -3
81 109 -45z m-919 66 l64 -7 -63 -34 c-66 -36 -91 -37 -131 -6 -19 15 -19 15
4 40 16 17 30 23 43 19 10 -3 47 -9 83 -12z m546 -97 l-7 -49 -72 -22 -72 -22
71 107 72 106 7 -36 c5 -19 5 -57 1 -84z m580 89 c15 -3 32 -12 38 -20 32 -37
-74 -24 -122 16 l-23 20 40 -6 c22 -2 52 -7 67 -10z m458 -41 c0 -38 -6 -40
-39 -12 l-24 20 23 24 c28 29 40 19 40 -32z m-1265 -18 c-41 -33 -93 -51 -108
-36 -8 8 -8 14 0 22 15 15 83 38 113 39 l25 0 -30 -25z m1045 9 c29 -5 130
-67 130 -80 0 -2 -15 -7 -32 -12 -27 -7 -49 -2 -116 24 -97 38 -135 61 -126
75 6 11 75 7 144 -7z m-1510 -85 c0 -3 -11 -16 -24 -28 l-24 -23 -7 22 c-4 12
-4 32 -1 46 6 24 7 24 31 7 13 -10 25 -21 25 -24z m310 21 c0 -12 -70 -60
-137 -94 -32 -16 -69 -26 -95 -26 l-43 0 45 44 c30 29 65 51 105 64 64 22 125
28 125 12z m1040 -57 l25 -25 -25 7 c-14 4 -36 18 -50 32 l-25 25 25 -7 c14
-4 36 -18 50 -32z m-232 -14 c76 -11 86 -15 130 -54 26 -24 45 -45 42 -48 -3
-2 -39 0 -81 5 -45 5 -111 5 -159 0 -44 -4 -82 -6 -84 -3 -1 3 0 32 2 64 l4
59 31 -6 c18 -3 69 -10 115 -17z m-729 -27 c-7 -11 -24 -26 -37 -32 -43 -19
-37 0 12 38 33 26 43 23 25 -6z m304 -23 c4 -29 4 -55 2 -59 -2 -4 -44 -10
-92 -13 -49 -3 -112 -12 -140 -20 -29 -8 -53 -11 -53 -8 0 3 19 27 43 53 38
43 50 49 132 72 50 13 93 25 96 25 3 1 9 -22 12 -50z m1017 -17 c0 -64 -8 -66
-93 -27 -42 19 -90 38 -107 41 -16 4 -30 10 -30 14 0 6 112 -5 138 -15 7 -2
27 4 44 15 39 24 48 19 48 -28z m-177 -21 c120 -41 137 -53 66 -48 -58 4 -150
42 -157 65 -5 16 -6 16 91 -17z m-1413 -47 c75 21 94 20 43 -3 -22 -11 -66
-35 -97 -55 -31 -20 -59 -36 -61 -36 -12 0 -25 56 -20 81 6 27 6 27 42 12 33
-13 42 -13 93 1z m140 -3 c0 -5 -17 -23 -37 -41 -36 -29 -67 -41 -143 -55 -34
-6 -34 -5 -15 11 19 16 172 92 188 93 4 1 7 -3 7 -8z m1461 -124 c-13 -13 -14
5 -3 43 l7 25 3 -29 c2 -16 -1 -33 -7 -39z m-1714 -82 c6 -19 7 -35 2 -35 -11
0 -29 34 -29 54 0 28 16 17 27 -19z m2287 -920 c3 -8 1 -15 -4 -15 -6 0 -10 7
-10 15 0 8 2 15 4 15 2 0 6 -7 10 -15z m105 -265 c5 -19 12 -53 15 -75 10 -60
-10 -21 -24 50 -7 33 -14 66 -17 75 -4 13 -4 13 6 0 6 -8 15 -31 20 -50z
m-151 -551 c-3 -8 -7 -3 -11 10 -4 17 -3 21 5 13 5 -5 8 -16 6 -23z m-895
-421 c3 -18 3 -51 -1 -73 -7 -38 -9 -40 -42 -38 -71 5 -130 15 -130 23 0 8 53
60 100 99 39 32 67 27 73 -11z m-582 -104 c33 -15 59 -33 59 -40 0 -7 -15 -17
-34 -24 -18 -6 -42 -20 -51 -30 -10 -11 -26 -20 -37 -20 -33 0 -82 109 -63
140 10 16 53 7 126 -26z m479 -2883 c0 -16 -10 -37 -23 -49 l-23 -22 -11 41
c-10 38 -9 40 16 53 32 17 41 12 41 -23z m411 -1366 c-12 -170 -28 -263 -72
-419 -17 -59 -37 -158 -44 -220 l-12 -111 -2 135 c-2 223 30 566 89 965 11 72
20 137 21 145 1 8 8 -66 16 -165 12 -143 13 -211 4 -330z"/>
<path d="M1 12630 c0 -3 8 -30 19 -60 14 -42 23 -54 37 -52 17 2 17 2 0 -8
-17 -11 -16 -14 13 -46 16 -19 39 -53 51 -76 21 -41 31 -55 60 -86 22 -22 42
-65 63 -129 19 -57 31 -63 71 -37 l24 16 -49 64 c-33 43 -52 79 -56 105 -4 23
-13 43 -20 46 -8 3 -14 11 -14 18 0 8 -14 23 -30 35 -17 12 -47 51 -67 86 -21
35 -43 64 -50 64 -7 0 -13 3 -13 8 0 4 -9 18 -20 32 -11 14 -20 23 -19 20z"/>
<path d="M8 12220 c-6 -58 1 -76 26 -67 16 6 23 47 8 47 -5 0 -13 17 -18 38
l-10 37 -6 -55z"/>
<path d="M7180 7753 c0 -10 7 -53 15 -96 18 -94 19 -151 3 -176 -17 -28 -3
-51 30 -51 39 0 58 23 44 54 -18 40 -34 177 -27 233 l6 53 -35 0 c-28 0 -36
-4 -36 -17z"/>
<path d="M8328 2080 c-48 -14 -89 -44 -95 -70 -5 -18 5 -45 35 -101 23 -43 42
-89 42 -102 0 -19 -23 -46 -91 -109 -106 -97 -166 -172 -175 -217 -4 -18 -17
-44 -30 -57 -30 -30 -30 -40 5 -91 24 -36 28 -49 23 -92 -5 -54 15 -101 43
-101 18 0 18 0 0 -37 -8 -17 -16 -69 -19 -124 -3 -52 -8 -145 -12 -206 -5 -89
-4 -116 7 -129 12 -15 12 -16 -6 -11 -19 7 -20 1 -23 -156 -1 -89 -4 -193 -5
-232 -1 -38 2 -72 7 -75 5 -3 14 18 21 45 13 49 15 77 15 220 1 39 3 90 6 115
5 39 7 42 17 25 10 -18 15 -109 17 -286 0 -44 4 -58 17 -63 9 -4 20 -3 26 3 8
8 10 116 4 261 0 25 2 59 7 75 l8 30 14 -45 c8 -25 16 -74 18 -110 2 -36 5
-65 6 -65 1 0 2 -36 3 -80 2 -75 3 -80 25 -83 19 -3 22 1 22 35 0 21 4 54 10
73 5 18 6 36 2 39 -8 7 -11 27 -20 161 -5 69 -10 94 -20 92 -9 -1 -8 5 4 23
15 24 15 30 0 84 -13 46 -15 80 -10 159 6 89 5 102 -9 108 -15 5 -15 8 -2 27
8 12 15 32 15 45 0 13 4 21 10 17 6 -4 8 -15 5 -25 -3 -10 1 -47 10 -82 12
-43 16 -99 15 -178 -2 -146 -2 -145 17 -210 9 -30 17 -93 17 -139 1 -67 4 -85
17 -90 13 -5 15 -25 14 -124 0 -65 3 -121 8 -124 17 -10 26 13 32 87 4 41 11
91 16 110 12 48 12 50 -13 50 -21 0 -21 1 -6 16 14 15 14 20 2 51 -12 27 -13
59 -8 144 6 101 5 109 -11 109 -16 0 -17 2 -3 18 26 28 29 57 14 103 -8 24
-18 63 -22 86 -7 47 5 147 15 123 3 -9 20 -36 37 -60 42 -61 46 -80 53 -267 3
-89 9 -164 13 -168 16 -16 118 65 118 95 0 9 -12 50 -26 91 -32 94 -40 203
-24 332 12 91 11 101 -4 112 -15 11 -15 13 -1 19 9 3 25 25 35 48 24 54 26
138 4 290 -21 151 -15 301 16 383 37 97 37 129 3 164 -16 16 -47 34 -69 40
-45 12 -146 13 -186 1z m-68 -681 c0 -4 -6 -9 -13 -12 -10 -4 -13 2 -9 20 3
18 7 21 13 11 5 -7 9 -16 9 -19z m-38 -149 c16 0 -10 -27 -32 -33 -18 -5 -18
-3 -2 31 11 23 18 29 20 18 2 -9 8 -16 14 -16z m102 -5 c3 -8 3 -29 0 -45 -8
-39 3 -83 20 -77 9 4 12 -2 9 -17 -4 -17 -12 -22 -39 -23 -33 -1 -34 0 -20 16
19 20 23 141 5 141 -5 0 -7 5 -4 10 9 15 22 12 29 -5z m-186 -100 c-3 -27 -13
-33 -21 -11 -3 7 0 19 6 25 16 16 17 14 15 -14z m257 5 c-3 -5 -11 -10 -16
-10 -6 0 -7 5 -4 10 3 6 11 10 16 10 6 0 7 -4 4 -10z m-244 -170 c1 -5 2 -13
3 -17 19 -76 28 -171 22 -239 -5 -67 -3 -84 10 -95 14 -11 14 -13 -1 -22 -22
-12 -47 10 -37 32 4 9 6 80 4 158 -3 137 -4 142 -23 133 -20 -11 -28 3 -9 15
6 3 10 15 10 26 0 19 19 28 21 9z m-33 -245 c-2 -94 -6 -115 -18 -115 -13 0
-14 16 -9 112 8 129 6 118 20 118 7 0 10 -36 7 -115z"/>
<path d="M6370 1033 c-59 -10 -151 -46 -160 -63 -5 -10 -7 -32 -4 -48 3 -16
-4 -76 -15 -133 -20 -97 -20 -108 -6 -156 21 -69 79 -123 134 -123 22 0 44 -6
51 -15 6 -8 31 -25 55 -39 60 -36 90 -75 115 -152 24 -71 25 -71 100 -52 8 2
0 -2 -17 -10 -18 -8 -33 -18 -33 -23 0 -4 18 -22 39 -40 22 -17 41 -41 43 -53
4 -26 27 -31 53 -12 16 12 18 18 9 33 -6 10 -15 38 -19 62 -4 23 -13 45 -21
48 -9 3 -12 13 -9 24 5 14 -12 38 -64 93 -75 79 -84 98 -79 166 l3 43 51 -47
c29 -25 55 -58 59 -73 9 -39 23 -53 52 -53 19 0 23 -4 18 -19 -4 -14 3 -25 27
-42 55 -37 98 -82 98 -101 0 -12 7 -18 22 -18 17 0 19 -3 10 -12 -17 -17 -15
-25 11 -32 12 -3 33 -16 47 -28 30 -27 65 -48 80 -48 22 0 7 24 -50 77 -45 43
-59 61 -54 76 4 14 -4 27 -29 48 -20 16 -48 54 -63 84 -14 30 -30 55 -35 55
-5 0 -9 6 -9 14 0 8 -22 30 -50 50 -31 23 -61 56 -81 91 -17 30 -35 58 -40 61
-5 3 -9 10 -9 15 0 5 11 2 25 -7 13 -8 29 -13 36 -9 7 5 9 1 5 -12 -5 -15 7
-31 52 -71 33 -28 65 -64 72 -81 7 -17 21 -33 31 -36 11 -4 17 -10 14 -15 -3
-5 15 -28 40 -51 24 -23 47 -51 51 -62 8 -25 24 -42 70 -73 42 -29 51 -30 56
-7 2 11 -12 33 -34 55 -21 20 -38 41 -38 46 0 5 -6 12 -14 15 -8 3 -27 27 -42
54 -15 26 -55 75 -89 108 -59 57 -125 143 -125 163 0 5 15 6 32 4 32 -5 32 -5
10 -15 -23 -10 -21 -13 53 -84 43 -40 82 -73 87 -73 6 0 8 -7 4 -15 -3 -10 10
-25 39 -45 25 -17 45 -35 45 -40 0 -15 102 -110 117 -110 7 0 16 7 19 15 6 16
-9 36 -86 110 -51 49 -88 105 -70 105 7 0 33 -21 59 -46 25 -25 58 -52 73 -60
15 -8 29 -22 32 -31 5 -17 83 -49 93 -40 8 8 -64 77 -81 77 -9 0 -21 11 -28
25 -6 13 -14 22 -18 20 -5 -3 -11 2 -14 10 -3 9 -17 20 -30 25 -14 5 -36 25
-48 44 -23 36 -38 45 -38 24 0 -7 -5 -5 -12 4 -25 32 -231 198 -252 204 -18 4
-21 11 -18 40 3 28 -1 38 -27 61 -22 20 -31 36 -31 58 0 51 -47 76 -69 38 -9
-16 -10 -16 -11 -1 0 30 -85 45 -170 31z m160 -66 c0 -2 -10 -12 -22 -23 l-23
-19 19 23 c18 21 26 27 26 19z m-101 -121 c8 -10 8 -16 -3 -25 -11 -9 -15 -6
-18 14 -6 28 3 32 21 11z m134 -46 c20 0 20 0 1 -15 -27 -20 -41 -18 -47 6 -4
15 -2 19 10 15 8 -3 24 -6 36 -6z m92 -11 c11 -17 2 -18 -19 -3 -17 12 -17 14
-4 14 9 0 20 -5 23 -11z m-152 -117 c19 -18 31 -22 49 -17 l23 7 -24 -25 c-19
-21 -27 -24 -41 -15 -10 7 -15 18 -12 26 3 9 -6 24 -23 37 -18 15 -25 27 -20
36 6 9 10 8 16 -7 4 -10 18 -30 32 -42z m381 -59 c30 -27 55 -51 55 -55 2 -21
-32 -2 -85 47 -75 69 -48 76 30 8z"/>
<path d="M8550 535 c-7 -8 -24 -21 -38 -28 -44 -21 -47 -37 -17 -108 15 -35
30 -79 32 -96 6 -41 35 -44 59 -8 14 21 15 30 5 52 -7 15 -12 58 -11 97 2 98
1 106 -9 106 -5 0 -14 -7 -21 -15z"/>
<path d="M7115 319 c-4 -6 -5 -11 -4 -12 2 -1 14 -7 25 -14 28 -16 39 -5 17
19 -18 21 -29 23 -38 7z"/>
<path d="M8586 281 c-10 -11 -28 -21 -40 -23 -16 -2 -22 -11 -24 -36 -2 -21 2
-34 11 -38 12 -4 14 -18 10 -65 -5 -55 -4 -59 15 -59 32 0 52 38 52 97 0 41 4
53 15 53 12 0 14 7 9 28 -16 71 -20 75 -48 43z"/>
<path d="M7056 244 c-4 -9 -5 -17 -4 -18 2 -1 13 -7 25 -13 27 -16 33 -16 33
-3 0 12 -32 50 -41 50 -4 0 -10 -7 -13 -16z"/>
<path d="M8114 194 c3 -9 6 -27 6 -41 0 -29 22 -27 25 3 2 10 6 27 10 37 6 14
2 17 -20 17 -21 0 -26 -4 -21 -16z"/>
<path d="M8212 155 c1 -31 5 -45 15 -45 7 0 13 10 13 23 0 12 4 29 10 37 6 9
5 17 -3 22 -26 17 -35 7 -35 -37z"/>
<path d="M6741 109 c-13 -10 -32 -19 -42 -19 -22 0 -23 -1 -7 -35 7 -17 17
-24 28 -20 9 3 25 -3 35 -15 22 -24 44 -25 71 -5 18 15 18 16 -10 39 -16 13
-26 28 -23 34 4 5 -1 16 -11 25 -15 14 -19 14 -41 -4z"/>
</g>
</svg>
