<?xml version="1.0" standalone="no"?>
<!DOCTYPE svg PUBLIC "-//W3C//DTD SVG 20010904//EN"
 "http://www.w3.org/TR/2001/REC-SVG-20010904/DTD/svg10.dtd">
<svg version="1.0" xmlns="http://www.w3.org/2000/svg"
 width="1280.000000pt" height="785.000000pt" viewBox="0 0 1280.000000 785.000000"
 preserveAspectRatio="xMidYMid meet">
<metadata>
Created by potrace 1.15, written by Peter Selinger 2001-2017
</metadata>
<g transform="translate(0.000000,785.000000) scale(0.100000,-0.100000)"
fill="#000000" stroke="none">
<path d="M5027 7833 c-53 -22 -58 -53 -18 -106 57 -77 207 -300 284 -423 94
-151 164 -290 257 -509 220 -522 378 -1019 492 -1545 31 -145 31 -320 0 -442
-12 -47 -20 -92 -17 -100 8 -21 -58 -51 -342 -159 -569 -215 -711 -256 -1253
-364 -912 -181 -1129 -233 -1570 -377 -393 -128 -677 -270 -960 -479 -186
-137 -339 -268 -485 -414 -208 -208 -312 -357 -475 -679 l-95 -188 -165 -63
c-231 -87 -282 -114 -530 -278 -118 -78 -152 -106 -144 -118 3 -5 34 -9 68 -9
l64 0 20 -47 c11 -27 23 -58 27 -70 6 -21 12 -23 76 -23 38 0 69 -4 69 -9 0
-5 -15 -19 -34 -30 -28 -17 -34 -29 -40 -67 -10 -76 -7 -172 10 -304 10 -82
16 -196 15 -333 -1 -237 -12 -310 -80 -514 -46 -138 -51 -183 -23 -183 57 0
266 218 401 419 153 227 230 390 331 696 122 374 142 431 176 496 56 107 88
131 239 178 495 154 956 231 1485 247 327 11 743 -21 1820 -136 1240 -133
1674 -161 2200 -141 735 28 1292 113 1765 268 546 179 921 346 1436 641 134
77 245 139 247 138 1 -2 7 -93 12 -203 16 -323 41 -427 133 -555 64 -89 156
-161 233 -184 51 -15 59 -15 97 0 112 43 247 181 347 355 29 50 54 91 55 91 2
0 11 -24 20 -52 31 -96 138 -352 168 -403 98 -168 223 -300 342 -362 91 -47
249 -103 291 -103 40 1 99 30 166 84 49 39 64 60 102 138 95 199 149 515 166
968 10 253 4 409 -20 515 -72 327 -236 823 -396 1198 -19 44 -31 84 -27 90 4
7 44 62 89 122 148 199 379 699 503 1085 94 293 115 397 212 1030 25 158 28
372 9 466 -27 127 -100 184 -236 184 -43 0 -136 11 -206 25 -440 84 -551 59
-993 -225 -191 -123 -617 -368 -950 -547 -125 -68 -368 -172 -763 -327 -344
-136 -750 -304 -1020 -425 -230 -102 -379 -165 -761 -323 l-73 -31 -82 43
c-44 24 -93 52 -108 62 -52 36 -1009 1046 -1183 1248 -412 479 -844 878 -1095
1009 -131 69 -211 84 -283 54z"/>
</g>
</svg>
