<?xml version="1.0" standalone="no"?>
<!DOCTYPE svg PUBLIC "-//W3C//DTD SVG 20010904//EN"
 "http://www.w3.org/TR/2001/REC-SVG-20010904/DTD/svg10.dtd">
<svg version="1.0" xmlns="http://www.w3.org/2000/svg"
 width="1280.000000pt" height="742.000000pt" viewBox="0 0 1280.000000 742.000000"
 preserveAspectRatio="xMidYMid meet">
<metadata>
Created by potrace 1.15, written by Peter Selinger 2001-2017
</metadata>
<g transform="translate(0.000000,742.000000) scale(0.100000,-0.100000)"
fill="#000000" stroke="none">
<path d="M2855 7410 c-270 -43 -395 -167 -383 -380 8 -133 66 -213 261 -361
275 -208 331 -267 369 -392 42 -138 7 -287 -91 -386 -71 -72 -144 -109 -402
-209 -112 -44 -224 -89 -249 -102 -140 -71 -240 -165 -571 -534 -470 -526
-678 -645 -927 -531 -30 14 -112 68 -182 120 -69 52 -156 108 -193 126 -60 28
-75 31 -140 27 -231 -12 -362 -200 -343 -492 11 -165 39 -288 151 -661 99
-329 128 -449 138 -569 2 -27 7 -31 52 -42 122 -31 237 -37 606 -31 513 9 678
-10 867 -103 159 -79 269 -179 639 -581 241 -261 306 -315 637 -534 351 -232
406 -291 475 -506 38 -122 64 -270 91 -524 31 -302 65 -418 147 -514 72 -85
203 -147 370 -176 174 -30 311 -13 453 57 71 34 102 59 186 142 115 116 185
215 364 521 68 116 153 254 189 309 l65 99 98 -7 c534 -37 1156 -35 1678 4
486 37 1022 99 1694 196 131 19 249 34 262 34 42 0 147 -166 381 -605 85 -159
189 -342 231 -405 170 -257 353 -380 589 -397 151 -11 388 37 525 107 235 120
438 409 671 955 159 375 209 524 298 885 28 113 75 305 105 428 69 280 120
438 186 572 68 137 158 229 349 357 236 159 292 242 293 433 1 127 -23 214
-83 308 -58 89 -107 139 -271 277 -177 149 -203 177 -276 302 -74 124 -137
267 -204 458 -100 289 -182 419 -388 616 -475 455 -1226 745 -2322 899 -324
45 -693 75 -1146 91 -578 21 -844 0 -1659 -126 -597 -93 -793 -115 -1081 -122
-408 -10 -615 27 -795 142 -81 52 -147 117 -271 265 -248 298 -420 409 -778
500 -214 55 -521 82 -665 60z m9604 -3425 c38 -19 161 -160 161 -184 0 -10
-14 -44 -31 -76 -24 -46 -30 -67 -26 -97 l5 -38 -114 0 -114 0 0 211 0 212 45
-6 c25 -4 58 -13 74 -22z"/>
</g>
</svg>
